<?xml version="1.0" encoding="UTF-8"?>
<svg version="1.1" viewBox="0 0 1675 2048" width="2167" height="2649" xmlns="http://www.w3.org/2000/svg">
<path transform="translate(863,39)" d="m0 0 1 3-2 12v19l2 15 1 19v35l2 29 1 10-1 4v10l2 10v36l1 15 4 4h3l4-16 3-15 3-35h1l1 12v75l1 3v70l7 5v3l3-1 1 3v8l-3 8-6 4h-4v33l1 26 1-46 3-12 3 1 1 12h2v-13l1-1 1-9h3l4-7 2-12 1-20 3-7 3 1 1-1 1-9h2l1 11v19l-1 40h2v4h-2v2l5 1-1 9h-2v2l3 1 1 20 4 5v5h-2l1 4 1 13v13 3 3l1-2h2l1 9-2 5h-2l2 6-1 3 6-1-2 8 2 3v3l-3 1-2 5h2l1 3v9l-1 7 2 4 2 1-3 11-1 4h2v-3h2l1 8 3 2 1 6-2 7h-2l1 3-3 5-4 7-4-1 2 11v14l-1 11v19l1 5 1-16h2v14l-1 5 4 1v24h-2l2 10h-2l1 14 3 4v3h-2v27l1 3 1-9 2 4v7l-1 2 4-3 4 5 3 4 2-2 2-4h12l3-1 1 4 4 2 3-2 1 3 2-1 1 5 3 1-1 7-3-1v-4l-5 1 5 10v4h-2l3 8v6l-4 4v10h4l-1 7h-5v-8l-1-3-3 3v5l-4-2 1 6-2 7-4 5-5 10-3 1-4 10-1 3v5l5-3h4l5 13h6l4-3-1-4v-7l3-8 3-4 3 1v2l4-1-1 2v6l3 1 1 4h5v9l1 2 3 1h17l7-1 2-2h8v4h47l1-3 8-5 4-1 3 1 3-1 1 8-6 3-1 2-7 3h-14l-9 2v4h8l-1 2-6 1-2 2-5-1 1-8-16-1-2 4 6 3-3 2-8 4 1 4 7 2 1-5 2-3 6-1v5l-4 3h7l-2 3h-2v2l6 1 3 2 6 1v-2l33 1h99v2l9-1 2-1h15l17 1h26l13 2h8l10 1v3l2 1v-2h5l3-2 13 1h7l3 1-1 3 10 1 1-3 10-1-1 3-6 2v2h11v-2h5v2h2v-2h6v3h13l3 1v-2l17 1v2h-4l1 3-16 1h-36l-40-2h-60l-6 1 2 3h28v-3h4l-1 4 82 4 8 1v1h-78l53 2 1-1 7 1h24l2 1 139 1v1l-66 5-39 1-10 1v-2h-5l3 2-5 1-5-1-1 1h-6v2h-22l-6 1 17 2 12 2h22l-3 4 9 2 13-1 6 2-4 2 5 1v2l-3 1 40 6 10 2v1h-15l-14-1h-27l-12-1h-18l-7 1v2l13 1v1h-16l-2 1 1 2-5 1-27-1 1 2 4 1h10l4 2v3h30l18-1h15l8-2h19l4-2 20 1h67l9 2 8-1h13l18 3-2 2-14-1-9-1v2l-9 2-56 1-18 1 8 2 15-1h48l9-1h13l5 1h10l5-1h19l20 4 6 2v2l-12-2h-14l-24 3h-63v3h17v-2h5v2l3-2 6 2v-2l4 1 2-1h8l-1 3h9l1 2-18 1 2 4h-5l-2-4h-73l38 2 18 1v1l-14 1h-11v2h-4v-2l-42-1v2h-6l14 3 31 3-3 2-45 1-1 2-7-1v-2l-9-1v2h-7l-4-1-4 1h-25l-31-2-2 5-3 1v3l-5 2-7 1 22 3 23 2 3 2h-10v2h-17l-4-2h-9l7 2 22 2 2 5 8 1-1 2-12 2-15-1-20-1h-21l-2 1-3-3 1-1 12-2 3-1v-2l-5-1-4-2h-27l-16 1-26 5 2 2-1 1h-7v-2l-3 3 1 4 7 1v1l-11 1-3 3-16-1 6 2-1 2h-21l-17 1 17 2 2 1v2l-24 1h-20v2l-5-1-10-1v3l-3-1v-1h-23l1 2-9-1-1-1h-9l-1 1h-21l-6-1v2h-6l-4-1-21 2-7 1h-6l-5-1-4 3h8v11l1 6h-3l-2 6 2 1-4 1 2 2-4 1-1 3h-6v-3l2-2-3-1-5 3h-9l-7 1-5-4-7-1 2-4-4 2-9-1-4 1-1 7v8l-4 2h-2v-5l2-7h-3l-9-2-6-4h-2l-1 5 5 5-1 4h-7l-1 14-2-1-1-13-9-3v2h-2l-3-5-1 3 3 20 3 5 1 5-3 1-1 51-4 31-2 25v4l-3-1v12l3 1v2l-3 1 1 1 2 1-1 3 1 4v2h1l2-13 1-16 2-5-2-2v-6l2-4 4-1v38l-1 58h2v31l3-34h1v33l-2 9-1 4h2l-2 29-1 7h3l-1 6 2 2v12l-2 10-8 3-3-3-1-6v-12h-2l1 5h-2v-2h-2v3l-4-1-1-5v-2l-18 1-4-4v-9l-3 1-2 5-3-2 2 17-2 33 1 6-3 9-3-1-2 21v5l4 3 1-2h4v3h-2v7l9-3 1 3-1 2h4v6l-3-2v-3h-2v3h-4l-2 5-2 1 1 4v7h-2l3 3v4l1-1 1-9 3-6 3 2-1 6-3 5 4-1-2 6-2 4v12l-2 3-2-9-1 1v6 2l4 2v24l-2 1-2 3-2-2 1-4-2-1v-9l-2 1-2 5-2-1v16l-2 11 3 1-2 16v12l3 3v-11l2-5h3v-9l4-2v13h2v-3l4-1v17l-4 1 3 1-2 5 1 7-1 3v33l-1 2-1 48v26l2 16 1 6-2 6v4l2-1 1 28v2h-2l2 4h2l-1 3h-2l1 6-1 3 1 4-1 1 1 11-1 48-2 18h-1v-63l-3-1v-17l-1-4 3-8-3-1v-12l-1-17v-3l-2-7-1-7v-22l-1-9v-7l1-7-1-7-1-2h-3v-7l3-2 1-5-3-1-3-9 4-6v-8l-3-1-2-9-5-6-1-4v-39l-1-10v11l1 4-1 1-1 15h-2l-1-5-3 1-1-3-3-1 1-9h2l-1-7h-2l-4 11-2 4-2-2-1 3 1 4-2 6h5l1 7-1 1v24l-3 16-5 2-1 4h2v-2l3 1 1 4h-3l2 1v2h2v5l1 4-2 6-5-2v16l4 3-1 8-3 2h-2l-2 4 2 8-5 5 1 5 2-5 3 4 3 17 1 11h2l3 10-1 3 2 2v12l-2 4h-2l-1 6 4 1-1 7v32l-3 17h-5v-15l-3-3v7l-2 7-2 19-3 6h2l-1 5-1 3v3l-2 2h-3l2-14h-2l-1-7 2-11 3-32v-11l-1-11 1-11h-4l-3-2v10l-4 1v-10l-1-13-3-1-2-26v-9l-1 10h-2l-1-14h2l-1-8-1-1 1-9 2-5-1-6-1 5-2-2-1-7 2-5h2l-1-3 1-7v-9l-1-3 3-4h2l1-4h2l-1-8-2-6-1-7v9l1 4-2 8-1-2-4-1 1-5v-16l2-6-4-1-1-6v-29h-2v20l-2 1 1 8v14l1 2 1 30-2 2v7l2 10-1 5 1 10v11l-2 1-2-19h-3v-9l2-5v-10h-2l-1-2v-7-3l-2-1v-3l-3 1-1 2-2 16-2 4h-2l1-7-3 1-1-3v-8l2-10 2 1v13l2-9 4-2-1-15 2-24h-2v6h-2l-3 6 2 5 1 9-2 1-3-10h-3l-1-6 1-3-2-1 4-1-1-7 2-5h1l2 7 2-9h4v-3h-2l-4-9-1-8 2-3-1-12 4 4 4 14 1-22-1-1v-5h2l-1-2-5-3-3 1-5-3-1-9-5 5v17l1 2 4 2-5 5-1 4h-4v23l-1 5h-1l-1-9-1 17-3 13-2 1-2-1 1-4-2-3v-24l1-8-1-3v-12l-2-23v-20l3-9v-11l-1 3h-2l-1-3-1-19-1 1-1 4-1 14h-1l-2-7-1 11h1l-1 9-4 2-3 5 3 1-2 10-1 13 3 1-2 11v13l-3 12h-1l-2-12 1-7-1-4v-10l1-2v-13l-1-7 1-1 1-18 1-5h1l1 11 1-2h2v-3l-3-1v-5l-4-4 4-12 3-2 3-7 1-9-3-2-1-3-3 2h-3v-10l1-3 1-9v-12h-2l2-6-1-22-1-5-2 2-1-5-1-16-1-1v-11l-1-4 2-13 3 1 1 2v6l2-1v-4h2l2 6v-8l3-8-1-14 1-7-1-4 1-7-2-42-4-1-2-1-5 3-3-1 1-5 1-2 7-3-1-4 3-2-2-1 1-3h2v-10l1-7 4-4 3-7-4-1h-3l2-4v-1l-1-9 1-7h1l1-10-1-3 1-2 3-1 1-5-2-3v-11l4-1-4-1v-9h2l-1-12h3v5h2l-1-7h-2v-4l3-1h-6l1-8-4-3 2-9v-4l1-1v-7h-3l-1 8-3 4h-2v-8l3-6 1-9-1-2v-6l3-7 1-6h-7l-1-3-3-1v-6-2h-3v-5l-6 1-2-2 1-4 4-4h3l1 3 3-9 1-2-7-1 1 4-4 1-4-4-1-7-2-4h-2v-5l1-2-4-5v-3h-3l1-8h-10v-2l9-1-1-3-17 4-8 2h-7l-9-4-7-1h-13l-14 2-13-1-33-3h-24l-4-1-26-1h-13v-2h-12l-2 1h-22l-5-1h-42l-4-2-9-1-15-6-10-12-4-8-3-9-2-1-91-1-40-1-52-3-62-5-10-1-36-3-7-1-1-1-33-2-7-1-20-1-11-2v-2l64 3h15l5-1h18l3 1 8-2 16-1v2l8-2-7-4h-66l-8-2-2-1-29-3-10-2v-2l5-1h27l26 2 9-1v2h32l5-1v2l27 2 10 1h16l10-1h13l35 1 1-5-1-2-5-2v-2l-3 2-8 1v4l-5 2-2-5-4 2-10 2h-9l-5-3v-2l-6 1h-7l-1-1-13-1-1-4h-27l-10-2-3-1-7 1v2l-6 2h-8l2-5-14-1 1-4 9-1 6 1h9l5-1 12 2 11 1 24 1 16 3 15-1 5 2h12l11-1 6-1h14l1 3h2l3-3 3 3 1-4 5 1v2l-2 1 12 1v-3l7 2v-2l-5-1-1-2 8 1 4 1v2l5-1 2-1-2-1v-7l-8-1v-2l-7 1h-8-1v2l-5 2-9-1h-17l-5-2v2h-4v2l-16 2h-7l-5-1h-9l-2-1v-2l15-2h20l2 1-1-6-3 2-4-1-2 2-4 1h-7l-3-1h-6l1-4h-19l-9-2-5 1-3 3-2-2-1 2h-16l1-3 9-1 3 2 2-5-22 3h-19l-25-2-3-1-26-2-9-1 3-2h37l3-1 32 2 26 1v-2h7l-2 2 32 1h54l5-1-7-2h-36l1-2 30-2 24-1v-2l-3 1h-20l1-2 10-2h44l27 1h97l-7-2h-20l-9-2-29-2-1-1-41-1-15-1-3-1-24-1h-25l-27-1 2-2 5-1h11l9 2v-3h35l12 1 3 1 2-1 10-1-2-1 1-3 2-1-6-2v-1l20-1h49l61 3 9 1-5-6-1-6h-18l-29-3-37-3-22-3v-2h54 2 6 3l5-1v2l33-1 21-3 1 2 2-1-1-1-17-1h-48l-14-1 2-6h17v-2h2v2h9v-2l7-1h10l5-1 8 1h7l1 1v-5l-7-3h-11l-5-1-43-1-1-2 13-2 22 2h14l6-2 4 1v2l7-2h5l5-1h3v2l8-2h6l1 2 4-1 4 1 6-3 4 2-4 2v2h8l2-4 3-1v5l10-1-1-3 8 1-1 2h-4v2l7-2 1-2 10-1h7v4h-3l1 1 7 1 7-2 2-2 4 1-1 2 5-3h7l3-2 4 1v2l6 2 1 1 9-1-2-2 4-1 1-3 5 1v2h6v2l-8 2 3 1 9-2v-4l3 1-1 4h2v2h10l2 1 15 2-1-4 10-1-1 3-6 1 3 1 5 2 1-5h3v3l1-4 8 2 1-4 6-1v3l2 1h11l-1-5 5 2h6v-2l7-1v8l-1 2 3 1-7 2h5 3l3 1 3-2h-6l1-3h4v-9l4-8h2l1-6 2 2 10-5-1-11-5-1-2-2-3 14h-1l-1-12-5-2-1 5-2-2-2-7v-4h2l-1-4h2v-14l1-23 2-9 2-1v10l-2 25v13l2-2 1-2h2l-1-3 2-7 2-42v-40h-2v11h2l-1 5v1 4l-2 1-2 23-4 1 1-11v-28l-2-3v-5l2-2 2-5v-59l-1-1v-5h1l1-13h-2l-1-12-3 2-1-1 1-8h3 2l1-19-1-22 2-11v-15l1-9 2-2v14l2-4v-26l1-9-1-3-1 13-2 2-1-21-3 6-2-1 2-9 3-7h2l-1-6h2l1 8 2-8 1-13v-26l1-6h-2l-2 32-2 3v-36l-2-7 1-5 1-3h3l-1-6v-16l3-5 2-9 3-6h2l2 4 1-3 3-1 4-7h2l-1-13 4 4 2 17h2l-3-9 4 2 4 7v-10l-2-11v-7l1-8h3l4-9 1-11 8-8 1-5h2v-10l-2-5v-17l-1-5 5 3-2-3v-3l5 1v3l2 2v2l1 2 3-6 1-13 2 3v-14l1-2v-65h1l6 91h4l4 4-1 6 1 4h-2v2h2l2 6 1 2-2 9-1 3-2 1v2h2l1 3-1 5h2l3-16 1-7h-2l1-4 3-8h2l-2-8-1-13v-23h1l1 9v21l3 1-1 9 1-1 2-5 1-6h2l1-16 2-9 3-16h1l1 12 1-5 1-12v-10l-4-2-6-5h-4v-6l4-4 8-1 1-1v-10l3 4 2 3v-17l-1-8v-18l3-11v-5l-2-3v-7l1-3 2-22 1-8 2 1v11l-2 18h3l3 79 1 18 1-5-1-18-1-10v-45l-2-25 1-9v-13l-2-10-2 1v-7l2-6 1-9 2-6 3-17zm-16 222v35l2 40 3 12 3 4-3-55-1-6-1-26zm-60 28 1 2zm21 25v4h2l-1-4zm10 17 1 4zm-38 15 1 3zm139 1-1 5-1 20-5 16-5 11v11l-1 6-7 1v18l2 2-2 6v22l1 9h1l2-9 1-4 2 1 1-10 2 1 1-6 1 10 2-3 1-2 2-19 1-3 2-1v-16l1-5h-2v-8l1-5 1-48zm-66 8-3 1v17l2 1 3-4v-15zm-97 33-2 3v5h6l-3-8zm-5 1v2h-2l-2 7 2-1v-3l3-1zm9 1 1 2zm5 0-3 3-1 7 3 2 2-3v9l2-1v-2h2v6h2l-1-9-2-8-3 1v-5zm-7 12-1 3 1 5h2l2-7zm4 0m-7 5m1 1m10 1m1 1 1 2zm1 2v3l2-1zm-3 4 1 3 1-3zm-16 3-2 1v7l2 2 3-4-2-6zm23 3m0 6m-34 1-1 9 3 2-1-11zm189 4v4l2-4zm-194 5 1 2zm36 7m139 12v7h3v-5h-2zm23 21v4l-3-1v5l1-3 3 1v-6zm-16 13m-181 12-1 1v7h2v-8zm168 12-1 8h-1v6l4 1v-10l-1-5zm30 6 1 4zm-2 9 1 5h2v-3h-2zm-29 7-1 3v35l2 3 2-8-1-6-1-27zm36 23 1 2zm-205 4 1 2zm206 1 1 2 1-2zm-207 1m1 4v32h1l1-10v-21zm2 0m198 12 1 2zm-33 1 2 6h1v-6zm31 1m-30 9m28 4v5l2-3v-2zm-29 12m1 2v10h1v-10zm-168 26v15l2 1-1-16zm19 11 1 2 1-2zm-9 5v12h2l1-9zm14 0-3 3v13l3-4 4-8-2-4zm-24 2-1 2v58l3-2 1-9-1-1v-48zm11 19 1 4zm2 5-1 1v10l2 2v-13zm16 1 1 2zm-1 2 1 2zm-8 9v5l2 1v-5zm0 10 1 2zm1 4-1 4h3v-4zm-16 4v11h1v-11zm4 2v6l2 1-1-7zm12 3v7l3-1-1-6zm-20 5 1 2zm8 9-1 5v33l1-3h2l1-7v-25l-1-3zm22 0v6l3 1-1-7zm-26 1-1 17-1 40-2 20 1 3h8l1-1v-23l-1-8-2-2-1-9-1-37zm22 3-1 5h2v-5zm7 3-1 5h2v-5zm-9 8v7l2-1v-6zm188 0-4 3v5l2-4 3-1zm-193 2 1 14h1v-13zm14 7v5l2 1v-5zm-4 1m179 9m4 11 1 5 1-4zm4 5-1 3h2zm3 1-1 5h2l1-4zm8 18-2 2-8 1v6h2l2-4 2-1 1 4-6 2v9l3-3 7-8 1-4h2l1 3v-5zm-4 19-2 4 3-2zm-5 2 1 4 1-2zm1 7 1 2zm-196 14m201 9v2h-4v3h2l1 2 4-6zm-220 6v3l-3 1 1 2 4-1 2-3zm253 2 4 1zm49 4m-492 5m29 0 4 1zm-104 1v4h4v2l-4-1 1 3 9-1-2-1v-2l13 2h12v2h-6v1l10 1v-2h13l4 1-5 1v1h6l5-2h18l5 2 2-1v3h2l3-3h10v2h11l15 1-1 3h2v-2h8l-2-2-9-3-10-2-2-1-15-1-7-2h-8l-3 1-1-1h-19l-16-2-7-1zm555 1 2 2 9 1-4-3zm-59 2m-257 1m-226 2v2l4-1zm-41 2-10 1v2l7 1h21v-2l-10-2zm70 1m94 0m4 1 4 2-1 2 11 3 21 1 2 1 11 1 3-1-1-3-10-3-15-2h-9zm-47 1m-94 1m31 1 1 2 8-1v-1zm33 3 1 2 1-2zm59 0m79 1v3l12 1 3-2-8-2zm21 2 4 1zm10 0-1 4 4-1v-2l2-1zm22 0v2l4 2h3l-1-3zm484 9m-700 1 1 3-4 1-2 13 4 1h10l5-3 3-4h5l2-5h6l13 6 6 1 6-5 10-2v-1l-17-2h-2v2h-3l-1-2-11-1h-15l-2 1h-8l-4-3zm764 2m-5 1v1h5v-1zm23 0m24 1-4 2h5zm9 1m2 1m-11 2 4 1zm5 0m-721 1 1 4 3 4 5-2 3-3-10-2zm-128 4m7-1-4 2 1 1h5l1-2zm740 3 2 4 4-1v-2zm-79 2-9 1v1h12l19-1v-1zm-20 2v1h5v-1zm-758 2v1h11v-1zm-72 15 4 2v2l-3 1h9l7-1v-2l7-1v-1zm-4 1 1 3 3-1-1-2zm977 1 4 2h10l-2-2zm21 0 3 1v2l13 1 5-2-3-2zm-1044 14m-1 1 1 2zm29 0v3l4-2zm61 2-1 2 6 1 5-2v-1zm16 1m-67 1 1 2 2-2zm75 0-1 2 3-1zm9 2 4 1zm995 1m-1097 10v2l3-1zm1100 0m-1163 2m58 0m-45 1m34 4m1111 12m-1226 8m19 0 4 1zm5 0m7 0 4 1zm1357 1m-1347 1m17 0-3 2 28 3 14 1h19l2 2 15-1 5-2v-1l-11-1-3-1-29-1-14-1zm-32 2m1316 1m93 1m-262 10-11 3-7 1-28 1 3 2 6 2h6l1 2h3l21 1 31 2h27l-3-4-1-7-7-2-24-1zm-868 4 3 11 6 4 6 3 4-1 2-5h8l1 2 3-1 1-6-3-1 2-3-15 2-8 1h-3l7-4v-1zm929 17m32 1m-148 18m-112 14m-139 15v2l4-1zm-35 9v2l10 3 3-1-6-3zm-206 20m-10 5-1 2 3-1zm15 19 2 4v-4zm1 7-1 3 3-1zm125 64v13h1l1-9zm-111 1-2 11v12h2l1-3v-20zm-13 11m1 2 1 4zm11 25v5l2-1v-4zm-1 13 1 3v-3zm155 8 1 2zm-171 6 1 6 2-1-1-5zm171 4 1 2zm2 6-2 1v30h1l1-11v-14l1-6zm3 7-1 9 2 2v-11zm0 18 1 2zm-5 7v23h4v-5l-2-4-1-14zm-175 3m1 4v4l2-1zm-2 7m-1 1m176 19v7h5l-1-6-3 1zm-31 8-1 5h2v-5zm36 1m-38 6m1 1m46 0m-47 11m4 1-1 4v8l1 4 3-1-2-15zm34 3 1 4zm-31 14-1 4 2-1zm32 14m-184 20 1 2 1-2zm-1 2 1 2zm10 12-2 1 1 3 2-1zm-11 2-1 2 2 2zm138 15-2 11v14h1l3-17-1-8zm-114 32-1 2-1 14v12h2l1-11v-17zm115 5-1 4-3 1v2h3l1 4h-2v4l-3 1 1 4 4-1 1 3h2l-1-16-1-6zm-133 21-3 3v2h6l1 2v-6zm130 1 1 2zm-133 7m12 3m119 1m1 1 2 2v-2zm-123 1m9 0 1 4zm116 1m-1 3 1 2zm3 0-2 3-4 2v2l6-1 1-1v-5zm-121 2v3zm117 6m-113 1-1 3 3-1zm116 1-4 1-2 3 1 15 2-4 6-2 2-1 1 4 1-9-2-4h-3zm-135 12m141 4 1 2h2v-2zm-1 2 1 2zm-4 2 1 3zm-133 1m126 0-1 2v8l2 1v-11zm15 3v2l2-1zm-139 2m30 3-1 4h2zm95 3m-93 7-2 2-1 6h2l-1 6 6-3-3-11zm94 4v2l-3-1-1 1-1 12h-2l1 6 2 4 4-13 1-11zm-66 18v2l-3-1-4 4-1 3v14l2-4 1 5h-3v16h2v-4h2l1 3 2-8 1-5-1-12 1-4h-2v-5h3zm0 7m0 6 1 3zm6 17 1 4zm47 0 1 3v-3zm-1 3 1 2zm19 7v8l2 1-1-9zm11 2m-1 1-2 1 1 3 2-4zm-7 2m1 1 1 2zm-4 4-1 3 2 1zm-31 2-1 4 3 1-1-5zm29 1m-91 8m99 0-1 1-1 7v14l2 2 2-4-1-20zm-86 1 1 2 1-2zm18 3v2h2v-2zm26 1v2h2v-2zm-26 9m-20 17 1 4 1-4zm88 0 1 2zm-4 5 1 3zm-64 17-2 1 1 18 2 6-1 3h2v9l-1 9 4 2v-3l5 2-1-7-2-2-1-10-3-1 2-8h2v-18l-1-1zm24 5v11h1v-11zm-1 18m-1 7 1 2 1-2zm-22 3 1 2zm5 15m2 4-3 3-1 4-2-3v13l3-2 1 4-3 1v7l2-1v-4l4 1 1-4v-18zm62 19m4 13v7h1v-7zm1 10m-43 1-1 5 3 6h1v-9l-1-2zm-19 11 1 3zm-1 3 1 2zm63 8 1 2z" fill="#EA1D30"/>
<path transform="translate(980,830)" d="m0 0 3 1v2l4-1-1 2v6l3 1 1 4h5v9l1 2 3 1h17l7-1 2-2h8v4h47l1-3 8-5 4-1 3 1 3-1 1 8-6 3-1 2-7 3h-14l-9 2v4h8l-1 2-6 1-2 2-5-1 1-8-16-1-2 4 6 3-3 2-8 4 1 4 7 2 1-5 2-3 6-1v5l-4 3h7l-2 3h-2v2l6 1 3 2 6 1v-2l33 1h99v2l9-1 2-1h15l17 1h26l13 2h8l10 1v3l2 1v-2h5l3-2 13 1h7l3 1-1 3 10 1 1-3 10-1-1 3-6 2v2h11v-2h5v2h2v-2h6v3h13l3 1v-2l17 1v2h-4l1 3-16 1h-36l-40-2h-60l-6 1 2 3v7l2 9-1 5-1 16-10 12 5 5 5 10 5 4 1 6-4 10-1 10-7 8-7 7-6 1-10 4-9-1-7 1-3-2h-9l-11-4h-7l-4-2-5 1-5 4-9-1-4-4-1-2v-11l1-3-7-1v-3l4-1 5 2-1-13 3-7 4-4 4-1 4 3-1 6 5 4 3 6 9 7 6 4 9 2 6-1 3-2h13l5-5 8-3 2-4-1-9-5-5-11-5-2 4-4 1-8-4-2-2h-10l-7 3-6-1-3-3-3-8-4 2-5-1-4-5-4-11-3-10 4-11 2-2 2-5 6-5 2-1-11-1v5l-5-1 1-5-5 1v1l-7 1-1 4-4 1-2-2v-4l-4-1v5l-1 1h-14l-5 1-3-3v4h12l5 3 4 9 2 7v7l-2 11 1 9 1 5-1 7v16l-1 11 2 2v10l5-4 8 1 4 4v7l2 5-1 6-4 4h-21l-9-3-6-7-3-5-5 5-4 3-16 5-9-1-2 4-2 2-5-1-4-5h-8l-6-3-6-9-7-21-1-5 2-4v-10l-1-7 1-6-1-4 1-2-2-6 5-2-4-9-9-4-6-5v-2h-2l-4-9 1-3-4 4 1 5 3 6 8 7 9 4 2 4-1 4-2 5 2 12-1 9 1 3v7l-2 4v6l4 10 4 13 3 4v3l-5 1-3 3-7 2h-9l-2-1h-15l-7 4-2-2-28-3-3-1h-15l-4 1h-10l-5-3v-12l3-4 3-1h7l5 1 3-3h6l4 3 5-1h9v-7l-1-5v-7l2-8-2-7 2-12-6 1-2-1 1-4 7 1-1-6 3-5-1-16 1-9-1-3v-17l-1-3v-11l-3 2-5-1-4-4-8 1-5-2h-7l-7 1-4-6-1-9 5-5h13l8-1 8 1 9-1 6 1 9-1 3 2 6-1v-2l-4-2v-18l-2-3-2-6v-7l3-8zm10 26 4 1zm49 4m-12 7 2 2 9 1-4-3zm183 27m64 3m-5 1v1h5v-1zm23 0m24 1-4 2h5zm9 1m2 1m-11 2 4 1zm5 0m-102 7 2 4 4-1v-2z" fill="#EA1E31"/>
<path transform="translate(469,883)" d="m0 0h3l-1 3-6 1-4 2-2 3v11l7 6 5 2v-6l5 2v2h5v-3l4 1 4 8-1 10v8l1 8-4 1-7-6-8-3-2-3 3-3v-7l-3-1-1 9-6 1-3 4-14-2-6 2-1 3-10 5-6 8-8 16-2 3-1 16-1 2v15l2 2v9l1 8h2l1 6h2l4 7 7 7 10 4 7 2h5l2 2 8 1 1 2h-9l-4-2-9-1-15-6-10-12-4-8-3-9-2-1-91-1-40-1-52-3-62-5-10-1-36-3-7-1-1-1-33-2-7-1-20-1-11-2v-2l64 3h15l5-1h18l3 1 8-2 16-1v2l8-2-7-4h-66l-8-2-2-1-29-3-10-2v-2l5-1h27l26 2 9-1v2h32l5-1v2l27 2 10 1h16l10-1h13l35 1 1-5-1-2-5-2v-2l-3 2-8 1v4l-5 2-2-5-4 2-10 2h-9l-5-3v-2l-6 1h-7l-1-1-13-1-1-4h-27l-10-2-3-1-7 1v2l-6 2h-8l2-5-14-1 1-4 9-1 6 1h9l5-1 12 2 11 1 24 1 16 3 15-1 5 2h12l11-1 6-1h14l1 3h2l3-3 3 3 1-4 5 1v2l-2 1 12 1v-3l7 2v-2l-5-1-1-2 8 1 4 1v2l5-1 2-1-2-1v-7l-8-1v-2l-7 1h-8-1v2l-5 2-9-1h-17l-5-2v2h-4v2l-16 2h-7l-5-1h-9l-2-1v-2l15-2h20l2 1-1-6-3 2-4-1-2 2-4 1h-7l-3-1h-6l1-4h-19l-9-2-5 1-3 3-2-2-1 2h-16l1-3 9-1 3 2 2-5-22 3h-19l-25-2-3-1-26-2-9-1 3-2h37l3-1 32 2 26 1v-2h7l-2 2 32 1h54l5-1-7-2h-36l1-2 30-2 24-1v-2l-3 1h-20l1-2 10-2h44l27 1h97l-7-2h-20l-9-2-29-2-1-1-41-1-15-1-3-1-24-1h-25l-27-1 2-2 5-1h11l9 2v-3h35l12 1 3 1 2-1 10-1-2-1 1-3 2-1-6-2v-1l20-1h49l61 3 9 1-5-6-1-6h-18l-29-3-37-3-22-3v-2h54 2 6 3l5-1v2l33-1 14-2zm3 25m-110 8v1h11v-1zm-72 15 4 2v2l-3 1h9l7-1v-2l7-1v-1zm-4 1 1 3 3-1-1-2zm-46 15m-1 1 1 2zm29 0v3l4-2zm61 2-1 2 6 1 5-2v-1zm16 1m-67 1 1 2 2-2zm75 0-1 2 3-1zm9 2 4 1zm-102 11v2l3-1zm-63 2m58 0m-45 1m34 4m-115 20m19 0 4 1zm5 0m7 0 4 1zm10 2m17 0-3 2 28 3 14 1h19l2 2 15-1 5-2v-1l-11-1-3-1-29-1-14-1z" fill="#E82133"/>
<path transform="translate(850,892)" d="m0 0h20l5 3h9l7 8 8 4 3 11 5 13 2 10v24l-1 7 1 1v5l-4 1-3 9-7 8-3 6-19 9h-11l-6 4h-5l-6-5-7-2-4-4h-2l1 9-3 3h-2l1 9 3 3 10 2-1 5 4 2 4 5 1 2v7l-3 3-7 1-8-1-2 1h-8l-6-2h-24l-3-4v-8l2-2h13l-2-4v-4l1-1h6l2 1 2-7-1-12 1-3 1-13-2-4 1-9-1-1v-6l1-4-1-17v-26l-1-15-2-2-4 6-5-1 1-4 3-2-4-1h-8l-2-8 4-5 8-3h16l9 5 2 5 5-4 5-3 7-3z" fill="#FBF7F8"/>
<path transform="translate(481,883)" d="m0 0 10 2 11-1 2 8h5v4l-2 2-1 12-2 8v13l-2 4 1 6 1 11-2 3v10l1 8-3 5 3 5 2 8-2 3 4 3-1 9v4l-2 4 3 1 1 3-1 6 4 5 10-2 10 9v5l-7 8-8 1-6-1-9 1-13-1-5-7-6 2-5 3-1 2 2 1-8 1-13-2-2-2h-6l-12-4-6-4-7-7-2-3v-3h-2l-1-6h-2l-2-8v-9l-2-2v-15l1-2 1-16 10-19 6-8 8-5 3-1 4-4 7-1 10 3 2-4 3-2h3l1-8h4l1 1v7l-3 4 5 3 5 2 6 5h3l-1-16 1-10-4-8-5 1-5-1-3-2v6l-5-1-8-7v-11l5-5 7-2 2 1v2zm-47 129 3 11 6 4 6 3 4-1 2-5h8l1 2 3-1 1-6-3-1 2-3-15 2-8 1h-3l7-4v-1z" fill="#FBF8F8"/>
<path transform="translate(570,899)" d="m0 0h15l4 1v2l8 1 3 1 4 7 5-2 11-4 5-4 6-2 15 5 6 8 5 10 2 8v5l-3 3v15l-1 6v8l2 5-2 9 1 12v4l6 5 2 3v9l-4 4-5 1-9-2-4 3-6-1-11-6-5-3-6 7-6 2-6-6-12-2-4 3-2 4-3 1-5-4-3-6v-5l5-4 9-2 2-5-1-10v-30l-3-4 1-4 1-6 1-7-1-3-2-1v2l-4 1-3-2-1-4-8 6-6 4-5 11-1 8v11l-4 2 3 10 1 5-2 5 4 10 1 2 7-1v4h-2v3l5 2 2 3-5 4h-8l-2 2h-15v2h2v4h-7l1-5-10-4-2-2v-7l5-5 3-5 4-1-2-12v-5l1-1v-9l-3-4 1-6 3-4-2-4-12 2-1-4 2-2h10l2-9v-6l-5-5-6-8-1-5-2-1 4-5 5-1 4-4 6 1 11 5 6 1 6-5 5-2z" fill="#FBF7F8"/>
<path transform="translate(1188,904)" d="m0 0 5 2h7l9 3 5-1 4-2 3 7h3l1-2-2-1 8-2 15 1v1l-6 1 2 3v7l2 9-1 5-1 16-10 12 5 5 5 10 5 4 1 6-4 10-1 10-7 8-7 7-6 1-10 4-9-1-7 1-3-2h-9l-11-4h-7l-4-2-5 1-5 4-9-1-4-4-1-2v-11l1-3-7-1v-3l4-1 5 2-1-13 3-7 4-4 4-1 4 3-1 6 5 4 3 6 9 7 6 4 9 2 6-1 3-2h13l5-5 8-3 2-4-1-9-5-5-11-5-2 4-4 1-8-4-2-2h-10l-7 3-6-1-3-3-3-8-4 2-5-1-4-5-4-11-3-10 4-11 2-2 2-5 6-5 2-1-11-1v5l-5-1 1-5 3-2 20-1 3-2 10 1z" fill="#FBF7F7"/>
<path transform="translate(722,904)" d="m0 0 5 2h7l9 3 5-1 4-2 2 6 5 3 1-4 5-3 7 1 3 4 2 12 1 5-1 4-1 17-3 1-2 5-5 6 6 7 4 8 5 4 1 6-5 13v7l-9 10-5 5-6 1-9 4-10-1-7 1-3-2h-9l-11-4h-7l-4-2-5 1-5 4-9-1-4-3-1-3v-11l1-3-7-1-1-2 1-2 8 1v-13l4-8 7-3 4 3-1 6 5 4 3 6 9 7 6 4 9 2 6-1 3-2h13l5-5 7-2 3-5-1-9-7-6-9-3-4 4-9-3-3-2v-2l-10 1-7 3-6-1-3-2-3-9-4 2-5-1-4-5-4-10-3-12 4-10 5-8 6-5 9-5 3-2 10 1z" fill="#FBF7F8"/>
<path transform="translate(1089,919)" d="m0 0h5l3 3h12l5 3 4 9 2 7v7l-2 11 1 9 1 5-1 7v16l-1 11 2 2v10l5-4 8 1 4 4v7l2 5-1 6-4 4h-21l-9-3-6-7-3-5-5 5-4 3-16 5-9-1-2 4-2 2-5-1-4-5h-8l-6-3-6-9-7-21-1-5 2-4v-10l-1-7 1-6-1-4 1-2-2-6 5-2-4-9-9-4-6-5v-2h-2l-4-9 2-4 10-3 5-2 2 3 9-1 5-1 5 5 3 5 1 19v13l1 9-1 3v12l10-1 2 4-5 2h-7l-1 9-1 5 4 3v9l2 2h15l5-3 2-5 6 1 5-6 3-6 8-1 2-6 4-4-1-4-4-7 1-3 5-4v-20l-1-4-10-3-5-6-5-3-3-9 6-4 8-2z" fill="#FBF8F8"/>
<path transform="translate(936,879)" d="m0 0 13 1 9-1 6 1 9-1 3 2 5-1 2 2-1 4h-3l4 7v20l-1 5 1 16v26l-2 3 3 9v9l-3 8 1 6v3l-1 4 1 4-2 6 7 12 10-2 10 2 7-1 7 6 2 4v6l-3 3-7 2h-9l-2-1h-15l-7 4-2-2-28-3-3-1h-15l-4 1h-10l-5-3v-12l3-4 3-1h7l5 1 3-3h6l4 3 5-1h9v-7l-1-5v-7l2-8-2-7 2-12-6 1-2-1 1-4 7 1-1-6 3-5-1-16 1-9-1-3v-17l-1-3v-11l-3 2-5-1-4-4-8 1-5-2h-7l-7 1-4-6-1-9 5-5h13z" fill="#FBF8F8"/>
<path transform="translate(1138,914)" d="m0 0h4l1 4 4 1v-5h12l-3 3-6 5-2 5-4 8-1 4 5 17 5 8 5 1 4-2 2 2 2 9 8 1 7-3h10l5 4 7 2 4-4 9 3 6 4 3 6v6l-4 6-8 3-4 4h-13l-5 3-7-1-8-2-12-9-4-5v-3l-4-2-2-4 1-4-4-2-5 3-3 5-1 3v13l-8-1-1 2 7 2v14l1 4 6 2h6l7-5 5 1 2 1h8l10 4h9l3 2 11-1 6 1 11-5 4 2-2 2-9 3-5 2h-20l-2-1-12-1-5-2-12-2-5-1-8 5-9-2-3-2-2-7-6-2-5 1-4 2-1-10-2-4 1-14v-13l1-7-2-7 1-12 1-4v-7l-4-13-4-4-2-1h-12l-2-4 3-2 2 3 8-1h11l1-4h4l2 5 4-1v-4z" fill="#EB1C2F"/>
<path transform="translate(469,883)" d="m0 0h3l-1 3-6 1-4 2-2 3v11l7 6 5 2v-6l5 2v2h5v-3l4 1 4 8-1 10v8l1 8-4 1-7-6-8-3-2-3 3-3v-7l-3-1-1 9-6 1-3 4-14-2h-6l-1-2-6-1h-20l-9-2-29-2-1-1-41-1-15-1-3-1-24-1h-25l-27-1 2-2 5-1h11l9 2v-3h35l12 1 3 1 2-1 10-1-2-1 1-3 2-1-6-2v-1l20-1h49l61 3 9 1-5-6-1-6h-18l-29-3-37-3-22-3v-2h54 2 6 3l5-1v2l33-1 14-2zm3 25m-110 8v1h11v-1z" fill="#E72133"/>
<path transform="translate(858,909)" d="m0 0 4 2 1 2 7 1 8 7v3l5 2 4 4-2 5-2 4 3 1 3 7v5l-5 1 1 4 5 2-1 14-4-1-2-3h-4l1 4 4 6-1 5-7 8-15 4-4-1-1-1h-8l-6-6-2-10-2-3-5-2-3-5-1-4v-8l1-6-2-5 1-5 7-13 4-2 4-7 6-1 4-1 3-6z" fill="#EB1A2D"/>
<path transform="translate(465,947)" d="m0 0 4 1-1 9v13h11v-3l-6-2-1-7 1-1h6l2 2 4 14 4 8v5l-2 4 3 4-3 10-6 10-2 2-5 1-6 10-3-1 3-7-4-1 1-2-13 2-8 1-4-1 6-4-12-2-4-3 1-6-7-8 1-6 4-6-2-5 4-9 2-2 3-8 11-7 1-2h8l8-2z" fill="#EB1D2F"/>
<path transform="translate(577,924)" d="m0 0 4 1h-3l1 4 6 1v-2l3 1 1 5-1 9-2 3 1 4 2 4v32l1 7-3 6-9 2-3 3-7 3-3-2v-3l2-1v-2l-7 1-3-4-3-11 2-3-1-5-2-6v-4l3-2v-11l2-10 5-10 9-6z" fill="#EB1A2D"/>
<path transform="translate(623,924)" d="m0 0h8l4 5 3 6-2 7 1 6-1 3 1 7 2 8-4 4 2 8 1 8-2 4-1 11-1 1-12 1-2 4-7-5h-6l-2-4-1-7v-20l-1-4 2-4v-13l2-5v-4l7 1 1-4 1-6z" fill="#EB2335"/>
<path transform="translate(729,561)" d="m0 0h1l1 5 4-4 2 13h1v7h-2l1 13-3 9-1 8 2 11v12h2v2h-2l1 3v45h-2l1 17 2 1 1 6v17l7-2v17h-2v-13h-2v38l1 4-1 3h3l2 10v23l-2 2-2-5v-18l-1-8-2-2-1-9-1-20-1 40-2 20-2 4-1-4 2-42v-40h-2v11h2l-1 5v1 4l-2 1-2 23-4 1 1-11v-28l-2-3v-5l2-2 2-5v-59l-1-1v-5h1l1-13h-2l-1-12-3 2-1-1 1-8h3 2l1-19-1-22 2-11zm3 9v32h1l1-10v-21zm2 0m-2 67v15l2 1-1-16zm0 18-1 2v58l3-2 1-9-1-1v-48zm1 64 1 2z" fill="#E23C4B"/>
<path transform="translate(807,1605)" d="m0 0 1 3v10l2-1 1 3-1 3h-3v16h2v-4h2l1 3 1 21-2 1 1 8v14l1 2 1 30-2 2v7l2 10-1 5 1 10v11l-2 1-2-19h-3v-9l2-5v-10h-2l-1-2v-7-3l-2-1v-3l-3 1-1 2-2 16-2 4h-2l1-7-3 1-1-3v-8l2-10 2 1v13l2-9 4-2-1-15 2-24h-2v6h-2l-3 6 2 5 1 9-2 1-3-10h-3l-1-6 1-3-2-1 4-1-1-7 2-5h1l2 7 2-9h4v-3h-2l-4-9-1-8 2-3-1-12 4 4 4 14 1-22-1-1v-5zm-14 56m13 1 1 2 1-2zm-2 30 1 4 1-4z" fill="#E2293A"/>
<path transform="translate(727,925)" d="m0 0 13 1 5 6 6 3 7 9 4 7-1 8-7-1-7-6h-11l-16 4-5-2h-5l-4-5v-2l-9 1-2-1 1-6-1-3 1-2h11l3-9h13z" fill="#EC1B2E"/>
<path transform="translate(1193,925)" d="m0 0 13 1 4 5 8 5 7 9 3 6-1 8-6-1-6-4-2-2h-11l-16 4-5-2h-5l-4-5v-2l-9 1-2-1 1-10 1-1h10l3-9h14z" fill="#EC1B2E"/>
<path transform="translate(117,958)" d="m0 0 21 1 5-1 12 2 11 1 24 1 16 3 15-1 5 2h12l11-1 6-1h9l-1 3h-2l1 3 5 1-1 4-1-2-5-2v-2l-3 2-8 1v4l-5 2-2-5-4 2-10 2h-9l-5-3v-2l-6 1h-7l-1-1-13-1-1-4h-27l-10-2-3-1-7 1v2l-6 2h-8l2-5-14-1 1-4z" fill="#E03B4A"/>
<path transform="translate(426,939)" d="m0 0 2 1-6 7-8 16-3 5-1 16-1 2v15l2 2v9l1 8h2l1 6h2l4 7 7 7 10 4 7 2h5l2 2 8 1 1 2h-9l-4-2-9-1-15-6-10-12-4-8-3-9-2-1-91-1-40-1-52-3-13-1v-1l15-1 53 3 39 1h82l1-4 4 2-1 2 4 1-2-7-1-12 1-3 1-15 7-14 1-3-7-2 1-5 4 2 6-1 4-6z" fill="#B62734"/>
<path transform="translate(504,858)" d="m0 0 4 2-4 2v2h8l2-4 3-1v5l10-1-1-3 8 1-1 2h-4v2l7-2 1-2 10-1h7v4h-3l1 1 5 1v2l4 1-10 2-1-1h-19l-16-2-7-1h-32l-4-1-1 13-4-1-2-6v-4l-9-3h-11l-5-1-43-1-1-2 13-2 22 2h14l6-2 4 1v2l7-2h5l5-1h3v2l8-2h6l1 2 4-1 4 1z" fill="#DF3A49"/>
<path transform="translate(919,320)" d="m0 0h2l1 11v19l-1 14-2 1v-13l-1 20-5 16-5 11v11l-2 7-6 1-1-5 3 3-1-6v-35h3l4-7 2-12 1-20 3-7 3 1 1-1z" fill="#E72839"/>
<path transform="translate(469,883)" d="m0 0h3l-1 3-11 2-5 6-5 1-1 2h-13l-29-3-37-3-22-3v-2h54 2 6 3l5-1v2l33-1 14-2z" fill="#E62738"/>
<path transform="translate(999,928)" d="m0 0h2l2 9 1 3h2l4 5 5 3 6 2 3 4 1 6-5 2 3 7-1 3 1 6-1 6 1 3v10l-2 4 1 5 7 21 6 9 7 2h6l5 6 3 1-2 4-5-1-4-5-11-1-5-4-6-9-5-17-2-4v-6l2-4v-7l-1-9 1-4-2-13 3-4-1-7-9-3-8-7-3-4-2-5 1-5z" fill="#B21322"/>
<path transform="translate(822,1720)" d="m0 0h1l1 18 2 1-2 3h2l1 9-1 9 2 1 1-2 4 1-2-7-1-1-1-10-2-1v-4h2l1 2h3l-1 8 1-2h2l-2 5h2l1 2v34l-3 1-1-2v-18l-3 2-1 5-2-1v8h3l1 4-4 1 1 6h1v27h-1v-6l-3-1-2-26v-9l-1 10h-2l-1-14h2l-1-8-1-1 1-9 2-5-1-6-1 5-2-2-1-7 2-5h2l-1-3 1-7zm2 27 1 2z" fill="#E42F40"/>
<path transform="translate(687,916)" d="m0 0 2 1-5 5-6 13-1 5 6 18 4 6 5 1 4-2 2 2 2 8 4 2 8-1 3-2h10l3 3 9 3 4-4 9 3 8 7 1 9-4 6h-3l1-4v-9h-2l-4-4-4-2h-5l-3 2-8-1-7-5h-6l-6 3h-9l-5-5-1-6-8 1-5-4-4-8-4-12v-7l8-16z" fill="#B21322"/>
<path transform="translate(1153,916)" d="m0 0 2 1-5 5-2 5-4 8-1 4 5 17 5 8 5 1 4-2 2 2 2 9 8 1 7-3h10l5 4 7 2 4-4 9 3 6 4 3 6v6l-4 6-3-1 1-2v-8l-4-5-6-3h-5l-3 2-8-1-7-5h-6l-6 3h-9l-5-5-1-6-8 1-5-4-4-9-4-12 1-8 7-14z" fill="#B21322"/>
<path transform="translate(915,882)" d="m0 0 2 1-1 2 1 9 3 5 14-1 5 2 8-1 5 5 7-1 1 11 1 3v17l1 7-1 5v7l1 9-3 5v6l-5-1 1-5 2-4-2-12 1-5-1-29-2-8-5-1-4-4h-10l-3-1h-15l-4-5-2-9 3-5z" fill="#B21322"/>
<path transform="translate(808,911)" d="m0 0 4 3 1 22v25l1 14-1 1v6l1 5-1 5 2 5-1 12-1 9 1 6-3 7-3-1v-17l1-4v-11l-1-2v-64l-2-16z" fill="#B21322"/>
<path transform="translate(114,938)" d="m0 0 34 2 26 1v-2h7l-4 4v1l-22 3h-19l-25-2-3-1-26-2-9-1 3-2h37z" fill="#E72F3F"/>
<path transform="translate(673,622)" d="m0 0 4 1 5 9 4 3-1 5-5 5-9 5-4-1-10-12 2-6 4-5 6-3z" fill="#EA2133"/>
<path transform="translate(900,1785)" d="m0 0h1l1 28v2h-2l2 4h2l-1 3h-2l1 6-1 3 1 4-1 1 1 11-1 48-2 18h-1v-63l-3-1v-17l-1-4 3-8-3-1 1-8h1l1-13v-12zm-2 23m0 23 1 2z" fill="#E72A3B"/>
<path transform="translate(913,1024)" d="m0 0 2 1-1 2v12l4 2h10l8-1h13l1 1 28 3 3 2 6-4h15l2 1h9l7-1-4 4-3 1h-29l-4 2h-6l-2-1-24-2-5-1h-16l-4 1h-7l-6-3-1-1v-14z" fill="#B21322"/>
<path transform="translate(1271,910)" d="m0 0 3 1-1 4 82 4 8 1v1h-105l-11-1v-1h-6l1-4 28-1v-3z" fill="#E82638"/>
<path transform="translate(664 1e3)" d="m0 0 10 3v14l1 3 6 3h6l7-5 5 1 2 1h8l10 4h9l3 2 11-1 6 1 12-5 3 2-7 3-9 4h-20l-2-1-12-1-5-2-12-2-5-1-9 5-6-1-6-4-1-2-1-13-5-4z" fill="#B21322"/>
<path transform="translate(1130 1e3)" d="m0 0 10 3v14l1 4 6 2h6l7-5 5 1 2 1h8l10 4h9l3 2 11-1 6 1 11-5 4 2-2 2-9 3-5 2h-20l-2-1-12-1-5-2-12-2-5-1-8 5-9-2-3-2-2-7v-10l-5-2-1-4z" fill="#B21322"/>
<path transform="translate(748,1201)" d="m0 0h5l1 2v8l-2 10-2 3-4 9-1 8 3 3 3-12h1v8l-6 18-5 1-2-2v-5l2-4h4l-3-8-4-2v-10l6-16z" fill="#E52738"/>
<path transform="translate(522,945)" d="m0 0 2 1v3l12-2 3 3-2 5-2 3 1 5 2 3v9l-1 1 1 8v9l-5 3-3 5-3 3v7l12 6-2 1v4h5l-2 4h-5l-2-2-1-4-8-4-2-2v-9l6-7 4-4v-16l1-8-3-5 1-7 2-5h-13l-1-2 2-5z" fill="#B21322"/>
<path transform="translate(215,964)" d="m0 0h6l5 2h12l11-1 6-1h9l-1 3h-2l1 3 5 1-1 4-1-2-5-2v-2l-3 2-8 1v4l-5 2-2-5-4 2-10 2h-9l-4-2-2-9z" fill="#E52D3D"/>
<path transform="translate(446,871)" d="m0 0 9 1h7l1 2-1 2-18-1h-10v2h13l15 1 1 4h-54l-14-1 2-6h17v-2h2v2h9v-2l7-1h10z" fill="#E72E3F"/>
<path transform="translate(577,924)" d="m0 0 4 1h-3l1 4 6 1v-2l3 1 1 5-1 9-2 3 1 4 2 4v32l1 7-3 6h-3l-1-44-1-2h-7l-3-3 1-4h3l3 3h3l1-15h-6l-3-2v-2l-11 6 2-4 10-6z" fill="#B21322"/>
<path transform="translate(623,924)" d="m0 0h8l4 5 3 6-2 7 1 6-1 3 1 7 2 8-4 4 2 8 1 8-2 4-1 11-5 1v-9l2-6-1-10-1-1v-5l3-3-2-13v-12l1-7-2-4v-4l-4 1 1 6-4 1-2-2v-5l-2-1z" fill="#B21322"/>
<path transform="translate(852,85)" d="m0 0 4 1v2h2l2 12v10l-1 7v11l1 9 1 58 1 8v21l-2 6h-1v-17l-2-20v-45l-2-25 1-9v-13l-2-10-2 1z" fill="#BA3743"/>
<path transform="translate(937,1240)" d="m0 0h1l1 5v9l-3 28 2 1-3 7-2-3v6l2 8-2 29-3-2-1-5-1-15 1-11v-14l1-5h-2l-1-4v-10l4-5 2 1-1 3 1 4v2h1l2-13zm-9 31 1 2zm5 31 1 2z" fill="#DB5E69"/>
<path transform="translate(1072,928)" d="m0 0 2 1 3 9 6 4 5 5 8 3 2 4v20l-6 5 2 6 3 4-1 4-4 4-2 5-5 1 5-8 1-4-4-8 3-5 2-2 1-17-2-5-9-4-12-12-1-7z" fill="#B21322"/>
<path transform="translate(809,1682)" d="m0 0 4 2 1 30-2 2v7l2 10-1 5 1 10v11l-2 1-2-19h-3v-9l2-5v-10h-2l-1-2v-7-3l-2-1v-3l-2-1 1-7 2 1 4-2-1-9z" fill="#E03645"/>
<path transform="translate(749,1561)" d="m0 0h1l1 11 1-2h2l1-4 4-3-1 9-4 2-3 5 3 1-2 10-1 13 3 1-2 11v13l-3 12h-1l-2-12 1-7-1-4v-10l1-2v-13l-1-7 1-1 1-18z" fill="#E14452"/>
<path transform="translate(164,1055)" d="m0 0h7l2 3 6-2 4 3-12 5-6 3-8-1-7-3h-15l-2-1v-2l-5-1v-1l19-2h14l1 4z" fill="#DD3545"/>
<path transform="translate(409,859)" d="m0 0 22 2h14l6-2 4 1v2l7-2h5l4-1 1 11-1 9-4-1-2-6v-4l-9-3h-11l-5-1-43-1-1-2z" fill="#E13F4D"/>
<path transform="translate(962,795)" d="m0 0h4v7l4 1-2 9-4 5-5 10-4 1v-5h-2l-2 4 1-7-2 1v-15h2l2-5h2l2 4-4 2h-3l1 8 3-5 5-5 2-4h2v-2l-4-3zm-6 21-2 4 3-2z" fill="#E13645"/>
<path transform="translate(1193,925)" d="m0 0 13 1 4 5 8 5 7 9 3 6-1 8h-4l-2-9-8-11-8-5-5-4h-10l-6 2-8-1v-4h14z" fill="#B21322"/>
<path transform="translate(727,925)" d="m0 0 13 1 5 6 6 3 7 9 4 7-1 8-5-1v-6l-9-13-8-5-5-4h-10l-6 2-8-1v-4h13z" fill="#B21322"/>
<path transform="translate(473,957)" d="m0 0h6l2 2 4 14 4 8v5l-2 4 3 4-3 10-6 10-2 2-3-1 5-8 3-7-1-5-1-4 2-4-1-5-5-10 1-5-6-2-1-7z" fill="#B51322"/>
<path transform="translate(229,904)" d="m0 0 27 1 5-1h32l-3 3-5 1v-2h-2l-1 3-2 1h-13v-2h-25l-3 1-4-1h-21l-10 1h-12l-1-2 4-1z" fill="#E24352"/>
<path transform="translate(1181,1059)" d="m0 0 41 1v1l-22 1h-20v2l-5-1-10-1v3l-3-1v-1h-23l1 2-9-1-1-1h-9l-1 1h-21l-7-1v-2h16l11-1z" fill="#B51827"/>
<path transform="translate(940,293)" d="m0 0 6 3 3 5v12l-3 4-7 1-3-4-2-11 3-7z" fill="#EA1F31"/>
<path transform="translate(850,265)" d="m0 0h1l1 15 1 4 1 10 1 1 2 39 1 15v16l-1 6h-2l-2-39-2-35-1-6z" fill="#BA3844"/>
<path transform="translate(858,909)" d="m0 0 4 2 1 2 7 1 8 7v3l5 2 4 4-2 5-2 4 3 1 3 7v5l-5 1-3-9-2-3 1-5 1-4-8-7-4-5-4-2-7-2-2-2 1-4z" fill="#B21322"/>
<path transform="translate(213,1058)" d="m0 0h2l1 2 5-1h3 6l1 2 5-3 7 1h17l-2 4-6 3-4-1-1-1-22 1h-18l-7-2 1-4h9z" fill="#DC3D4B"/>
<path transform="translate(1313,1029)" d="m0 0h28l9 4 10 4 18 2 3 1v-2h2l-2 4-34-2v2l-11 1-2 1-3-3 1-1 12-2 3-1v-2l-5-1-4-2h-27l-18 1v-2l5-1z" fill="#BA303D"/>
<path transform="translate(788,1040)" d="m0 0 2 1v8l2 3h24l6 2h8l7-1 7 1 3 1-4 3h-15l-2 1-9-1-3-1h-24l-5-5-1-7z" fill="#B21322"/>
<path transform="translate(731,490)" d="m0 0h2l1 8 2-1 2 5v10l1 8h-2v35h-3v-30l1-9-1-3-1 13-2 2-1-21-3 6-2-1 2-9 3-7h2zm3 13-1 1v7h2v-8z" fill="#B72C39"/>
<path transform="translate(840,1807)" d="m0 0h1l2 13v10l-1 9v28l-3 31-1 1v20l-2-3 1-6h-2l-1-7 2-11 3-32v-11l-1-11 2-6 1-7-2-1-1-14z" fill="#B62633"/>
<path transform="translate(770,1556)" d="m0 0h2l1 14-3 9 1 9v20l2 1v15l-1 3 2 10-1 4v12l-1 2h-2l-1-3v-7l1-8-1-3v-12l-2-23v-20l3-9z" fill="#B93541"/>
<path transform="translate(949,973)" d="m0 0h2v3h8v7l-1 7 2 7-2 6v7l1 9-1 3h-4l-1-7v-12l1-7-1-8 1-7-6-2-1-4z" fill="#B21322"/>
<path transform="translate(766,898)" d="m0 0 3 3h15l8-3-1 6 1 6 11-1 2 2-4 2v4l4 2-2 2h-5l-2-4 1-3-8-1-3-4v-5l-8 2h-11l-4-4 1-3z" fill="#B21322"/>
<path transform="translate(251,952)" d="m0 0 9 2 13 1 1 2h-17l-5-2v2h-4v2l-16 2h-7l-5-1h-9l-2-1v-2l15-2h20l2 1 1-3z" fill="#E33848"/>
<path transform="translate(960,1083)" d="m0 0 8 1 7 2 6-2 3 5-1 9v8l-4 2h-2v-5l2-7h-3l-9-2-4-3v-2l10 1-9-3h-4z" fill="#BA3844"/>
<path transform="translate(897,1339)" d="m0 0 2 2 4 38 2 8v17h2v2l3-1 11 1v1l-15 1-4-4-1-13v-5l-2-6-1-5h-1v-17l-1-2-1-9 3-1z" fill="#BA3844"/>
<path transform="translate(465,947)" d="m0 0 4 1-1 9v13l9 1-2 3-9 1-4-4v-9l2-10-7 2-11 1-10 7v-3l11-7 1-2h8l8-2z" fill="#B21322"/>
<path transform="translate(504,858)" d="m0 0 4 2-4 2v2l3 1v1l-15 1h-21v-7l4-1v2l8-2h6l1 2 4-1 4 1z" fill="#DE3443"/>
<path transform="translate(1415,1059)" d="m0 0h7l4 2 1 3-4 6-7 3h-8l-3-2v-5l5-5z" fill="#E92537"/>
<path transform="translate(821,1766)" d="m0 0 1 2h4v13h3l1 4-4 1 1 6h1v27h-1v-6l-3-1-2-26v-9l-1 10h-2l-1-14h2v-6z" fill="#E13D4C"/>
<path transform="translate(879,1600)" d="m0 0h1v61l5 10h1l1 10-3-1-2-9-5-6-1-4v-55z" fill="#BA3A46"/>
<path transform="translate(857,1653)" d="m0 0h2v24l-3 16-5 2-1-3 1-1 1-14h2l-1-3-2 1v-3h-2l1-4h4l-1-9 4-2z" fill="#E72C3D"/>
<path transform="translate(95,980)" d="m0 0h18l19 1 38 1 8 3 8 1v2l-14 1-3-3-4-2h-66l-6-1z" fill="#BD4550"/>
<path transform="translate(900,1785)" d="m0 0h1l1 28v2h-2l2 4h2l-1 3-3 1-1 2h-2v20l-1 2h2v3l-3-1v-17l-1-4 3-8-3-1 1-8h1l1-13v-12z" fill="#DB4D5A"/>
<path transform="translate(890 1e3)" d="m0 0 1 2-17 9-3 1-12 1-5 3h-7l-3-2v-2l-8-2-4-3-1-5h4l5 4 7 1 4 5 7-1 4-3h11z" fill="#B21322"/>
<path transform="translate(766,360)" d="m0 0 3 3 2 7 1 8 1 19 3 14v20h-2l-3-9 1-4 1 1-1-11-2-6-3-31-1-4z" fill="#B82F3B"/>
<path transform="translate(852,85)" d="m0 0 4 1v2h2l2 12v10l-1 7v11l1 9v18l-2 1-3-30 1-12v-13l-2-10-2 1z" fill="#BA3844"/>
<path transform="translate(1249,907)" d="m0 0h59l34 2v2h-15l-21-1-69-1v-1z" fill="#BA3844"/>
<path transform="translate(1405,963)" d="m0 0h25l9 3-1 2-10 3-6-1-19-1-4-1v-3z" fill="#DE3C4B"/>
<path transform="translate(270,929)" d="m0 0h44l4 2-26 1 2 1v2l-3 1h-33v-1l24-1v-2l-3 1h-20l1-2zm16 3 1 3 3-1-1-2z" fill="#DD5763"/>
<path transform="translate(481,1041)" d="m0 0 3 1 4 6 19 1 7-1 6 1 5-1 4 2-8 2h-22l-5-1h-20l-3-2 1-3z" fill="#BC212F"/>
<path transform="translate(904,1570)" d="m0 0 2 2v14l-2 19-3 4-2-4 1-3-3-3-1-7 4-9z" fill="#E53343"/>
<path transform="translate(849,188)" d="m0 0h2v71l2 5v16h-2v-15l-3-1z" fill="#B21322"/>
<path transform="translate(1094,1026)" d="m0 0 4 3 4 7 6 4 5 1 21 1-3 3h-25l-7-4-8-10 2-4z" fill="#B21322"/>
<path transform="translate(755,367)" d="m0 0 4 4 2 17h2l-3-9 4 2 4 7 2 4v6l-2-3h-2l-1-4-2 2-2 4v-2h-2l-3-5-2 1v-7l-1-2 1-2h2zm5 23 1 2z" fill="#E43949"/>
<path transform="translate(620,1009)" d="m0 0 14 8 4 2 5-1 4-2 9 2 5-1v2l-5 3h-14l-2 1h-7l-11-6-5-4z" fill="#B21322"/>
<path transform="translate(522,911)" d="m0 0h3l2 5 8 10v2l3 1-1 10-2 6-4-2 2-10-6-7-6-8-1-5z" fill="#B21322"/>
<path transform="translate(771,1464)" d="m0 0h2l1 18 2 2-4 43v8h2l-1 5-2 1-2-4v-16h1l2-38-2-1z" fill="#B62735"/>
<path transform="translate(220 1e3)" d="m0 0 57 3 22 1v2h-25l-52-3-13-1v-1z" fill="#BB3F4A"/>
<path transform="translate(1380,929)" d="m0 0h67l-2 2-39 1-10 1v-2h-5l3 2-5 1-5-1-1 1h-6l-1 2v-3h6v-2h-2z" fill="#C0414D"/>
<path transform="translate(1271,910)" d="m0 0 3 1-1 4-3 3 17 1v1l-16 1h-13l-11-1v-1h-6l1-4 28-1v-3z" fill="#DE606C"/>
<path transform="translate(414,873)" d="m0 0h2v2l10-1v2h-9v4h29v1l-37 1-14-1 2-6h17z" fill="#C04F59"/>
<path transform="translate(793,1655)" d="m0 0h1l2 7 2-4 5 1v10h-1v-8h-2v6h-2l-3 6 2 5 1 9-2 1-3-10h-3l-1-6 1-3-2-1 4-1-1-7z" fill="#E2414F"/>
<path transform="translate(572 1e3)" d="m0 0h1l3 9 7 7-3 2-5-1-5-6-5 2-9 1-3 2h-8l-3-2v-2l3-1h12l2-2h8l4-4-2-3z" fill="#B21322"/>
<path transform="translate(410,1017)" d="m0 0h2v3h2l1 6h2l4 7 7 7 10 4 7 2h5l2 2 8 1 1 2h-9l-4-2-9-1-15-6-10-12-4-8z" fill="#BD4752"/>
<path transform="translate(747,1434)" d="m0 0 5 1-1 14 2 13 1 23h-3l-1-5-1-18-1-5-2 2-1-9h1l1-5h1l1-8h-2z" fill="#BA2D3A"/>
<path transform="translate(849,147)" d="m0 0h1v41l-1 59h-1l-1-63-1-8v-18z" fill="#C25C66"/>
<path transform="translate(481,906)" d="m0 0 4 1 4 8-1 10v8l1 8-4 1-2-4v-22l-2-4z" fill="#B21524"/>
<path transform="translate(930,1290)" d="m0 0 3 3 2 8-2 29-3-2-1-5-1-15zm3 12 1 2z" fill="#DF4B58"/>
<path transform="translate(125,998)" d="m0 0h25l48 4 8 1v2h-11l-35-3-10-1-25-2z" fill="#BC3F4B"/>
<path transform="translate(917,400)" d="m0 0 2 4 2 3v58l-2-1-1-7v-44l2-5h-2z" fill="#B8303C"/>
<path transform="translate(1492 1e3)" d="m0 0 33 1 18 1v1l-14 1h-11v2h-4v-2l-42-1v2h-10l-2-2 8-1 24-1z" fill="#DF505D"/>
<path transform="translate(765,1198)" d="m0 0h3l1 5-1 5-1 16-2 6h-1v-7l-4-1v-9h2l-1-12h3v5h2zm-3 15m1 2 1 4z" fill="#B91B2A"/>
<path transform="translate(827,1737)" d="m0 0h2l1 2h3l-1 8 1-2h2l-2 5h2l1 2v34l-3 1-1-2 1-25-2-7-1-1-1-10-2-1z" fill="#B5212F"/>
<path transform="translate(739,753)" d="m0 0h1l1 13 1 4-1 3h3l2 10v23l-2 2-2-5v-18l-1-8-2-2-1-9v-12z" fill="#B8313E"/>
<path transform="translate(734,626)" d="m0 0h1v9h2v2h-2l1 3v45h-2l1 19-2-1v-58l-1-17z" fill="#BE4B56"/>
<path transform="translate(903,576)" d="m0 0h1v16h-2l1 5v56l-2-1-1-12 1-10-1-26-1-2h2l-1-6z" fill="#B21322"/>
<path transform="translate(819,1788)" d="m0 0 2 1v10l1 11-1 16-3-3-3-1-1-12 2-3 2-5v-13z" fill="#E43848"/>
<path transform="translate(796,1618)" d="m0 0 4 4 3 12v15l-3 1-4-9-1-8 2-3z" fill="#E43444"/>
<path transform="translate(264,914)" d="m0 0h16l6 3v1l-12 1-37-1 2-2 5-1h11l9 2z" fill="#DB4B58"/>
<path transform="translate(824,1671)" d="m0 0 2 1v7l-2 5h-1v9l1 4-2 8-1-2-4-1 1-5v-16l3-7h2z" fill="#DF4553"/>
<path transform="translate(719,1074)" d="m0 0 3 1v2h3l-1 9-5 9-2 1-3-15 2-4z" fill="#E63343"/>
<path transform="translate(721,409)" d="m0 0 2 2 1 8 1 31 1 6-1 5-1 7h-2l-1-9-1-4 1-2z" fill="#E33F4D"/>
<path transform="translate(975,855)" d="m0 0h2l2 2v19l3 2v2l-3 2-4-1-1-2-1-9-3 2v-3h-3v-2h7v-6l1-3z" fill="#B31322"/>
<path transform="translate(779,1565)" d="m0 0h1v41l1 11 2 2-1 4h-2l-2-4-1-9v-35l1-2v-6z" fill="#B21322"/>
<path transform="translate(682,592)" d="m0 0 2 1v7h3l-1 7-1 4h-6l-4-6 1-5 3-3h2z" fill="#E92738"/>
<path transform="translate(948,523)" d="m0 0h1l2 12 2 1 1 13-7-2-4 1-1-3 4-8z" fill="#E03343"/>
<path transform="translate(810,1724)" d="m0 0h2l2 9-1 5 1 10v11l-2 1-2-19h-3v-9z" fill="#DF4352"/>
<path transform="translate(738,450)" d="m0 0 3 1v20l-2 23-1 2h-2l1-19v-26z" fill="#BB3C48"/>
<path transform="translate(793,1697)" d="m0 0 2 1v13l2-9 4-2-3 20-2 4h-2l1-7-3 1-1-3v-8z" fill="#E63343"/>
<path transform="translate(935,1289)" d="m0 0h1v9l1 3-1 8-1 19-2 11 3 9v4h-2l-4-10v-7h2l1-21 1-13v-11z" fill="#B21322"/>
<path transform="translate(667,1123)" d="m0 0 7 3 1 3-5 9h-6l-1-1v-9z" fill="#DE2B3B"/>
<path transform="translate(211,993)" d="m0 0h16l31 1 1 1 12 1v3l-15-1-3-1-29-1-13-2z" fill="#B72936"/>
<path transform="translate(1024,916)" d="m0 0 2 1v2h20l3-3h2v4l3 1-1 2h-5-4l-7 1-11-1-4-2 1-4z" fill="#B21322"/>
<path transform="translate(822,1720)" d="m0 0h1l1 18 2 1-2 3 2 1-2 6-1-2h-2l-1-3-1 5-2-2-1-7 2-5h2l-1-3 1-7z" fill="#E14755"/>
<path transform="translate(751,1232)" d="m0 0h1v8l-6 18-5 1-2-2v-5l2-4h4l-2-7 3 1 2 2z" fill="#DF3948"/>
<path transform="translate(259,904)" d="m0 0h34l-3 3-5 1v-2h-2l-1 3-2 1h-13v-2l-9-1z" fill="#E13F4E"/>
<path transform="translate(836,1925)" d="m0 0h3v8l-4 20-1 13-2 1v-23l2-2v-6h-1v-6z" fill="#E33E4D"/>
<path transform="translate(839,1860)" d="m0 0h1l1 17-2 21-1 1v20l-2-3 1-6h-2l-1-7 2-11z" fill="#BB3B47"/>
<path transform="translate(460,887)" d="m0 0 3 1-4 4v11l7 6 4 3-2 2h-5l-4-4-1-4-3-3-1-6-5-1 1-2h5l2-4z" fill="#B41F2D"/>
<path transform="translate(731,490)" d="m0 0h2l1 8 1 5-1 1-1 22-2 2-1-21-3 6-2-1 2-9 3-7h2z" fill="#E14150"/>
<path transform="translate(590,1010)" d="m0 0 12 2 5 5 2 1 5-1-4 4-5 1-6-5-13-2 2-4z" fill="#B21322"/>
<path transform="translate(585,899)" d="m0 0 22 1 3 1 1 4 8-1h3l-6 4-10-1-13-4-4-1v-2z" fill="#BA2A38"/>
<path transform="translate(888,1197)" d="m0 0h2v34l-1 5-2-2-1-5v-9h2v-5l-3 1v-13h1l1 6v-10z" fill="#B93441"/>
<path transform="translate(463,993)" d="m0 0h3l2 7 1 3h-2l1 6 2 2-1 1 5 2-1 2-4 1v-2h-10v-1l5-1-1-6 1-3-3-5z" fill="#B21322"/>
<path transform="translate(1376,1009)" d="m0 0 58 3-3 2h-25l-16-1-14-2z" fill="#BD444F"/>
<path transform="translate(326,948)" d="m0 0h19l24 3 10 2 1 2h-9l-8-2h-9l-6-2-23-1z" fill="#B62634"/>
<path transform="translate(235,1058)" d="m0 0 8 1h17l-2 4-6 3-4-1-1-1-15-1z" fill="#E23545"/>
<path transform="translate(697,447)" d="m0 0h5l1 1v8l-5 4-5-1-1-7z" fill="#E72D3E"/>
<path transform="translate(892,395)" d="m0 0h1v28l-1 33-2-2-1-7 2-47z" fill="#B21322"/>
<path transform="translate(518,892)" d="m0 0h8l2 1-1 4-3 2h-8l-4-2-1 2-5-1 1-2h2v-3z" fill="#BF3D49"/>
<path transform="translate(827,1780)" d="m0 0 3 2-1 4h-3l1 6h1v27h-1v-6l-3-1v-20l1-9z" fill="#DC505D"/>
<path transform="translate(816,1636)" d="m0 0 2 1 1 17-1 19 2 1h-4l-1-6v-29l-2-1h3z" fill="#BE4C56"/>
<path transform="translate(1e3 1425)" d="m0 0 3 1v2l3 1-3 6-4 5h-2l-2-4-2-1 1-6z" fill="#E8283A"/>
<path transform="translate(932,1392)" d="m0 0 2 2 1 3h2l-1 7 1 3 1 14 2 8-2 1-3-3-2-21 1-5-3-4z" fill="#B8313D"/>
<path transform="translate(817,1601)" d="m0 0h1l1 14-1 13-3 1-2-11v-6l2-3h-2l-1-5 2-1 2 1zm-2 6m0 6 1 3z" fill="#C33F4B"/>
<path transform="translate(1115,914)" d="m0 0h5v5l-1 1h-14l-5 1-2-3 5-3z" fill="#F0DFE1"/>
<path transform="translate(724,499)" d="m0 0 2 1-1 5h-2l-1 8-3 6h-2l-1 3-2-3v-6l3-5h2l3-8z" fill="#DF4251"/>
<path transform="translate(751,1496)" d="m0 0h1v12l-1 2 3 1-3 1-1 4h6l2-4v7l-2 3-5 2h-3v-10l1-3 1-9z" fill="#DE4A58"/>
<path transform="translate(1605,988)" d="m0 0h11v1l-24 3-47-1v-1l37-1h14z" fill="#C15760"/>
<path transform="translate(1330,918)" d="m0 0 25 1 8 1v1h-73v-1l40-1z" fill="#DA656F"/>
<path transform="translate(723,725)" d="m0 0 1 2 3-1v20h2l-1 23-4 1 1-11v-28l-2-3z" fill="#E43949"/>
<path transform="translate(1212,943)" d="m0 0h5l6 9v6l-6-2-4-5 2-1-4-2z" fill="#EC1B2E"/>
<path transform="translate(1041,914)" d="m0 0h6l1 4-2 2h-9l-11-1v-4z" fill="#EEDBDD"/>
<path transform="translate(743,724)" d="m0 0h2v17h-2v-13h-2l-1 25-2 1v-27l1-2z" fill="#E92536"/>
<path transform="translate(876,969)" d="m0 0h2l4 7 2 3-1 5-7 8-3-1 5-6-1-6-3-4 1-5z" fill="#B21322"/>
<path transform="translate(745,943)" d="m0 0h6l6 9v5h-4l-6-5 2-2-4-2z" fill="#EC1B2E"/>
<path transform="translate(979,856)" d="m0 0h4l1 6v15l-4 1-2-2z" fill="#ECD5D7"/>
<path transform="translate(726,772)" d="m0 0h1v10l-2 25-2 6h-1l1-31 2-9z" fill="#DE5561"/>
<path transform="translate(735,572)" d="m0 0 3 3v7h-2l1 13-3 9-1 6h-1v-8l1-10v-19z" fill="#BB3E4A"/>
<path transform="translate(213,915)" d="m0 0 10 1h7l-2 2-19 2-23-1 1-2 23-1z" fill="#E04956"/>
<path transform="translate(326,913)" d="m0 0 9 1 22 1 5 1h16l8 1v1h-25l-42-2v-1l7-1z" fill="#CF9499"/>
<path transform="translate(832,1696)" d="m0 0 2 1v33l-2 4h-1l-1-26 1-11z" fill="#B62533"/>
<path transform="translate(757,1292)" d="m0 0h2l-2 21 1 1v9h-3l-1-3 1-1-2-6-3-1 1-3h2l2-10v-6z" fill="#BD2F3C"/>
<path transform="translate(937,1240)" d="m0 0h1l1 5v9l-3 28 2 1-3 7h-1v-11l1-17 1-6z" fill="#BE4B56"/>
<path transform="translate(979,1084)" d="m0 0 4 2 1 5-1 7v8l-4 2h-2v-5l2-7z" fill="#F5EBEC"/>
<path transform="translate(1241,896)" d="m0 0 4 1h4 6v3l-5 2h-15l-2-4 1-1z" fill="#E8CDCF"/>
<path transform="translate(902,1319)" d="m0 0h3l1 4 1 13v12l-2 4-2-13z" fill="#B21322"/>
<path transform="translate(733,1074)" d="m0 0h2v9l4 2-3 1v9h6l1 4-4 1-4-4-1-7-2-4h-2v-5l2-5z" fill="#C13240"/>
<path transform="translate(1497,1010)" d="m0 0 14 1-3 2-45 1-1 2-7-1v-2l-3-1 45-1z" fill="#D57981"/>
<path transform="translate(1308,896)" d="m0 0 13 1h7l3 1-2 4-12-1-1-1-8 1-3-1 1-3z" fill="#E04A57"/>
<path transform="translate(111,943)" d="m0 0 26 1 19 1-1 2h-19l-25-2z" fill="#BD4651"/>
<path transform="translate(1258,931)" d="m0 0h48l6 3v2l-10-2-29-1-15-1z" fill="#B72A37"/>
<path transform="translate(595,872)" d="m0 0h9l37 4v2h-13l-10-1-10-2h-9l-4-2z" fill="#B21322"/>
<path transform="translate(882,954)" d="m0 0h2l1 3 5 2-1 14-4-1-1-9-4-3 1-5z" fill="#B21322"/>
<path transform="translate(383,921)" d="m0 0h5l1 1 25 2 3 1v2h5v1h-11l-9-2-15-1-4-2z" fill="#C35D66"/>
<path transform="translate(912,334)" d="m0 0h2v15l-2 16-3 7-1-4 2-12 1-20z" fill="#BF4D57"/>
<path transform="translate(757,1343)" d="m0 0h2l1 8v13l1 11-3 1-1-5-1-27z" fill="#B41E2C"/>
<path transform="translate(1462,996)" d="m0 0 10 1 20-1 21 1v2h-43l-7-1z" fill="#C35E68"/>
<path transform="translate(954,801)" d="m0 0h2l2 4-4 2h-3l1 8 3-5 4-1v4h2l-2 5-2-3-3 5-4 1v-15h2z" fill="#D12434"/>
<path transform="translate(852,85)" d="m0 0 4 1v2h2l2 12v10l-3 3-2-17-1-5-2 1z" fill="#C0434E"/>
<path transform="translate(879,1600)" d="m0 0h1v31l-3 2-1-11v-16z" fill="#BB3E4A"/>
<path transform="translate(558,1051)" d="m0 0h22l3 1h14v2l-19 1-4-1-16-1z" fill="#B9333F"/>
<path transform="translate(980,830)" d="m0 0 3 1 1 3-1 12-3 3-2-2-1-10v-3z" fill="#EEDBDC"/>
<path transform="translate(890,1748)" d="m0 0 1 2h2l1 4-2 5 2 1-1 5 1 8v12l-2 1-2-13z" fill="#C15760"/>
<path transform="translate(947,1315)" d="m0 0h1v33l-2 9-2 4 1-21z" fill="#E14755"/>
<path transform="translate(191,936)" d="m0 0h11l3 1h12v2l-21 2h-5l-1-2z" fill="#DC505D"/>
<path transform="translate(1232,898)" d="m0 0 3 3h17l-1 3-7 2h-11l-3-2v-5z" fill="#B21322"/>
<path transform="translate(768,897)" d="m0 0h8l6 1 1-1h5v3l-4 2h-15l-2-4z" fill="#EBD4D6"/>
<path transform="translate(998,916)" d="m0 0h2l2 3 14 1v3l-4 2-11-1-4-2v-5z" fill="#B31322"/>
<path transform="translate(803,1561)" d="m0 0 3 1 1 11-1 16v8l-1 6h-2l1-34v-2l-2-2z" fill="#B21322"/>
<path transform="translate(553,1036)" d="m0 0h19l25 1 2 4-6-1v-2l-15 1h-17l-8-1z" fill="#B21322"/>
<path transform="translate(785,293)" d="m0 0h1l1 8h2l1 2v13l-1 7-3-2v-12l-2-5z" fill="#C13542"/>
<path transform="translate(1143,979)" d="m0 0h2l-3 9v13l-5-1v-11l4-8z" fill="#B21322"/>
<path transform="translate(1e3 915)" d="m0 0h15l3 3-2 2h-15l-2-4z" fill="#EEDADC"/>
<path transform="translate(907,483)" d="m0 0 2 2 1 10-1 26-1 5h-1z" fill="#CF9499"/>
<path transform="translate(755,1682)" d="m0 0h1v21l-2 15h-1l-1-6v-10z" fill="#E24250"/>
<path transform="translate(1028,1104)" d="m0 0h5v4l4 2-1 4-6 1-4-4 1-6z" fill="#DB3B49"/>
<path transform="translate(818,1562)" d="m0 0h1v37l-2 2-1-17v-12z" fill="#B21322"/>
<path transform="translate(894,1561)" d="m0 0 1 2-1 2 4-2 1 5v9l-2 1-2 3-2-2 1-4-2-1 1-12z" fill="#E04856"/>
<path transform="translate(677,979)" d="m0 0h2l-2 5-1 3v13l-3 1-2-1v-12l5-8z" fill="#B21322"/>
<path transform="translate(712,882)" d="m0 0 21 1 4 3v2l-4 1-1-2-6-2-1 2v-3l-11 2-1-1h-12l-5-1v-1z" fill="#B21322"/>
<path transform="translate(468,859)" d="m0 0h3l1 11-1 9-4-1-1-16z" fill="#FBF7F7"/>
<path transform="translate(1131,1061)" d="m0 0h47l2 1v2l-5-1-10-1v3l-3-1v-1h-23l1 2-9-1z" fill="#D18188"/>
<path transform="translate(769,1626)" d="m0 0 3 1 2 10-1 4v12l-1 2h-2l-1-3v-7l1-8-1-3z" fill="#BA3945"/>
<path transform="translate(996,754)" d="m0 0 4 1-2 6-4 4-6 1 1-6 1-2h3z" fill="#E23545"/>
<path transform="translate(1204,1052)" d="m0 0h6v2h3v-2h14l8 1v1l-13 1-21 1v-3z" fill="#BD3D49"/>
<path transform="translate(1041,865)" d="m0 0h19v2l3 1v3h8l-1 2-6 1-2 2-5-1 1-8-17-1z" fill="#DC5C68"/>
<path transform="translate(776,1196)" d="m0 0h2l1 3v31l-1 2h-2l-1-4 1-7v-20l-1-3z" fill="#B21322"/>
<path transform="translate(1082,1035)" d="m0 0h5l-3 3-15 5h-10l2-4h9z" fill="#B21322"/>
<path transform="translate(823,251)" d="m0 0h1l1 9v21l3 1-1 9 1 2-2 2-2-8-1-13z" fill="#E24351"/>
<path transform="translate(757,1151)" d="m0 0 2 3-1 8-2 8-3 4h-2v-8l3-6z" fill="#DF4150"/>
<path transform="translate(424,924)" d="m0 0h8l11 3 3 3-2 1h-6l-1-2-20-2v-2l7 1z" fill="#B91D2C"/>
<path transform="translate(760,379)" d="m0 0 4 2 4 7 2 4v6l-2-3h-2l-1-4-4 2-1-7 1 2h2z" fill="#DF4D5A"/>
<path transform="translate(313,919)" d="m0 0 21 1 41 1v2l2 1-5-1-41-1-15-1z" fill="#CF9499"/>
<path transform="translate(909,495)" d="m0 0h1v44l-2 3-1-5v-11l1-5z" fill="#B21322"/>
<path transform="translate(849,247)" d="m0 0h1l1 12 2 5v16h-2v-15l-3-1v-16z" fill="#B31826"/>
<path transform="translate(468,1116)" d="m0 0h3v10l-1 3h-6v-8z" fill="#F2E3E4"/>
<path transform="translate(105,964)" d="m0 0 17 1 2 2-3 1h-15l-10-1 2-2z" fill="#E14453"/>
<path transform="translate(656,1053)" d="m0 0 3 1v2l3 1-14 2-13-1-9-1v-1l12-1 12 1 6-1z" fill="#BE4954"/>
<path transform="translate(944,751)" d="m0 0 2 1 1 8-1 2 3 9 2 1v6h-3l-2-8h-2z" fill="#B21423"/>
<path transform="translate(907,445)" d="m0 0 4 2 1 10v11l-2 2 1-11h-2v6l-2 1-1-14z" fill="#D5777F"/>
<path transform="translate(726,1052)" d="m0 0 2 2v11l-1 2h-2v-5h-10v-2l9-1-1-3h-4v-2z" fill="#C33643"/>
<path transform="translate(761,1254)" d="m0 0h1v29l-1-2-4-1h-3l3-6v-5l1 4 1-2z" fill="#D37A82"/>
<path transform="translate(759,1249)" d="m0 0h2v12l-1 10-1-4h-2v8l-2-4v-7l1-5h1z" fill="#E14654"/>
<path transform="translate(186,966)" d="m0 0h13l4 3v2l3 1-19-1z" fill="#D75662"/>
<path transform="translate(409,859)" d="m0 0 12 1-1 3h-23l-1-2z" fill="#DF4D5A"/>
<path transform="translate(803,1649)" d="m0 0 2 4 1 10 1 2-2 4h-2v-10l-5 1v-7h4z" fill="#E03545"/>
<path transform="translate(761,1159)" d="m0 0h2l1 4v17l-3-3-1-3-2-1 2-4v-7l-2-1z" fill="#BD202F"/>
<path transform="translate(789,1575)" d="m0 0h3l1 9h2l1 3v10h-2v-8h-2v-2l-3-1-1-10z" fill="#B52331"/>
<path transform="translate(758,1244)" d="m0 0 6 1-1 6 1 1 1 8-2 4h2l-2 6h-1l-1-14-1-4 1-3-4-1z" fill="#BB1D2C"/>
<path transform="translate(361,859)" d="m0 0h32v2l-4 1h-12l-16-2z" fill="#DE5460"/>
<path transform="translate(937,589)" d="m0 0h2l1 2v6l-3 9-4-3v-6z" fill="#E14755"/>
<path transform="translate(807,1605)" d="m0 0 1 3v10l2-1 1 3-1 3h-3v16h-1l-1-13v-12l-1-1v-5z" fill="#DC5C68"/>
<path transform="translate(266,1007)" d="m0 0 33 1v2h-25l-8-1z" fill="#BC414D"/>
<path transform="translate(125,998)" d="m0 0h25l18 2v2h-8l-10-1-25-2z" fill="#C4646D"/>
<path transform="translate(154,982)" d="m0 0h16l8 3 8 1v2l-14 1-3-3-4-2-11-1z" fill="#BE4954"/>
<path transform="translate(659,632)" d="m0 0 4 5 8 11-1 2-4-2-9-11z" fill="#B9323F"/>
<path transform="translate(901,383)" d="m0 0h1v27l1 7-3-1-1-3v-14l1-15z" fill="#B21423"/>
<path transform="translate(1181,1059)" d="m0 0 41 1v1l-22 1h-19l-2-2z" fill="#C3616A"/>
<path transform="translate(1304,1006)" d="m0 0h18l17 1v2h-20l-15-2z" fill="#BA3945"/>
<path transform="translate(988,972)" d="m0 0 10 1 2 1-1 4-5 1-7-3v-3z" fill="#EFDEDF"/>
<path transform="translate(761,699)" d="m0 0h3v10h2l2 13h-4l-1-11h-2z" fill="#B21322"/>
<path transform="translate(802,262)" d="m0 0h1v21l-1 3v13l-2-1-1-3v-13l1-3h2z" fill="#B21322"/>
<path transform="translate(829,210)" d="m0 0 6 2 8 7-2 4-7-7-4 1-1-1z" fill="#C03441"/>
<path transform="translate(210,905)" d="m0 0h9l-2 2-13 2h-12l-1-2 4-1z" fill="#DF505D"/>
<path transform="translate(902,872)" d="m0 0h2l2 11 2 2-2 2-4-1-2-3v-9z" fill="#B21322"/>
<path transform="translate(735,497)" d="m0 0 2 2 1 8 1 13h-2l-1 4-1-2-1-9-1-2h2z" fill="#B9333F"/>
<path transform="translate(127,963)" d="m0 0 14 1-2 1v2l-6 2h-8z" fill="#DA5460"/>
<path transform="translate(188,955)" d="m0 0h11l7 1v3h-7l-10 1z" fill="#E14755"/>
<path transform="translate(251,952)" d="m0 0 9 2 13 1 1 2h-17l-5-2-1 2v-2h-5l1-2z" fill="#C0525C"/>
<path transform="translate(304,948)" d="m0 0 11 1-2 3 2 5-3 3v-4l-8-1-1-3h2z" fill="#D63C4A"/>
<path transform="translate(467,787)" d="m0 0h4v12h-6v-8z" fill="#EFDDDE"/>
<path transform="translate(770,1556)" d="m0 0h2l1 14-3 9 1 9-3 2-1-3v-8l3-9z" fill="#BF4F59"/>
<path transform="translate(723,825)" d="m0 0 9 6v10l-2 4-1-12-5-2-1 5-2-2 1-5z" fill="#CF3E4B"/>
<path transform="translate(1097,917)" d="m0 0 3 3 8-1 9 1-1 3-5 1-2-1h-12l-2-4z" fill="#B31322"/>
<path transform="translate(728,616)" d="m0 0h1v17l-2-4v-4l-3 1-2 2-1-1 1-8 2-1v2h4z" fill="#C01424"/>
<path transform="translate(734,446)" d="m0 0h1v20l-1 11-2 3v-17z" fill="#E24351"/>
<path transform="translate(813,1769)" d="m0 0h1l1 5 1 18v12l-2-4-1-7z" fill="#DF4F5C"/>
<path transform="translate(799,1607)" d="m0 0h2l2 4 1 16-3-3-2-6z" fill="#E43C4B"/>
<path transform="translate(772,1511)" d="m0 0h1l-1 24h2l-1 5-2 1-2-4v-16h1l1-9z" fill="#B21322"/>
<path transform="translate(296,945)" d="m0 0 19 2v2h-29l3-3z" fill="#B21523"/>
<path transform="translate(935,299)" d="m0 0h2l2 11 4 6v2l-5-1-3-6-1-8z" fill="#B93642"/>
<path transform="translate(868,1666)" d="m0 0h2l1 6-1 5 3 2-1 3-2-1 2 6-4-2-1-2v-16z" fill="#E33C4B"/>
<path transform="translate(760,1635)" d="m0 0 2 2-1 10-2 14-2-2v-13z" fill="#E14654"/>
<path transform="translate(177,944)" d="m0 0 5 2-2 1-2 4h-16l1-3 9-1 3 2z" fill="#D96670"/>
<path transform="translate(905,870)" d="m0 0h3l2 9-1 4h-4l-1-11z" fill="#EFDCDE"/>
<path transform="translate(941,712)" d="m0 0 4 2 2 2-1 7-6-2-1-5z" fill="#DF4E5B"/>
<path transform="translate(786,279)" d="m0 0 5 1v3l2 2-1 3-2 1-2 3-4-2-1-8 5 3-2-3z" fill="#DE515E"/>
<path transform="translate(840,1807)" d="m0 0h1l2 13v10l-2 2v-7l-2-1-1-14z" fill="#B21322"/>
<path transform="translate(847,1709)" d="m0 0 3 3 1 6v15l-1-2-2-1-1-4z" fill="#D2626C"/>
<path transform="translate(881,1515)" d="m0 0h1v6l4-1 4 3-2 10-2-4v-2l-2-1v-2h-4v-8z" fill="#C14752"/>
<path transform="translate(941,1222)" d="m0 0h2v12h-5l-1-1v-6l2-4z" fill="#E33D4C"/>
<path transform="translate(978,1121)" d="m0 0 6 2v5l-4 2-5-1 1-4z" fill="#EFD9DB"/>
<path transform="translate(170,907)" d="m0 0h15l-3 2-7 1h-20l2-2z" fill="#D96973"/>
<path transform="translate(460,887)" d="m0 0 3 1-4 4-1 10-3 1-1-6-5-1 1-2h5l2-4z" fill="#B9333F"/>
<path transform="translate(799,1755)" d="m0 0 2 3-2 31-2 2v-11z" fill="#E04A57"/>
<path transform="translate(774,1705)" d="m0 0 2 1 1 6v10l-1 2h-2l-2-5z" fill="#E24452"/>
<path transform="translate(35,988)" d="m0 0 23 1 1 3h-13l-11-2z" fill="#DD5662"/>
<path transform="translate(252,972)" d="m0 0 10 3 2 3h-3l-3 1h-7l-1-4v-2z" fill="#E04755"/>
<path transform="translate(685,568)" d="m0 0h3l1 9-4 2-5-1 2-6 2-1z" fill="#DE3242"/>
<path transform="translate(837,1986)" d="m0 0 2 1-1 13-1 7-4 3-2-1 3-5z" fill="#E43C4B"/>
<path transform="translate(765,1211)" d="m0 0h1l-1 19h-1v-7l-4-1v-9zm-3 2m1 2 1 4z" fill="#CF9499"/>
<path transform="translate(1248,1010)" d="m0 0h45l-2 2-43 1z" fill="#B31928"/>
<path transform="translate(977,836)" d="m0 0h1l1 11 2 3-4 3v-3l-3-1v-7l2-5z" fill="#B72936"/>
<path transform="translate(739,473)" d="m0 0h1v13l-2 10h-2l1-19z" fill="#BA3844"/>
<path transform="translate(889,1698)" d="m0 0h1v23l-2-2h-3v-7l3-2v-10z" fill="#D6767E"/>
<path transform="translate(793,1697)" d="m0 0 2 1v19l-3 1-1-3v-8z" fill="#DE4F5C"/>
<path transform="translate(750,1678)" d="m0 0h2l1 6v6l-3 7h-2v-7h2l-1-11z" fill="#E14755"/>
<path transform="translate(680,1102)" d="m0 0 5 2 1 3-1 2-7 2-2-1 1-5z" fill="#DE3544"/>
<path transform="translate(278,1049)" d="m0 0h2l-2 5-4 2-9-1 1-3z" fill="#E72F40"/>
<path transform="translate(525,1047)" d="m0 0m-15 1 10 1 5-1 4 2-8 2h-22l4-2z" fill="#BF4D58"/>
<path transform="translate(213,946)" d="m0 0 7 1 8 2 1 4h-13v-5z" fill="#BF2A38"/>
<path transform="translate(1121,913)" d="m0 0h10l7 1v1l-7 1-1 4-4 1-2-2v-4z" fill="#E1BEC1"/>
<path transform="translate(850,265)" d="m0 0h1l1 15 1 4 1 9-3 4-1-6z" fill="#C15962"/>
<path transform="translate(803,1693)" d="m0 0 1 3 5-2v11l-5-1v-3l-2-1z" fill="#D7525E"/>
<path transform="translate(1343,1009)" d="m0 0h7l1 1v5l3 1v2l9 3 2 2h-7l-5-2-3-3-1-7-6-1z" fill="#BD4752"/>
<path transform="translate(984,974)" d="m0 0 4 2 9 3v2l-2 1-9-1-2-1z" fill="#B21322"/>
<path transform="translate(1384,905)" d="m0 0 17 1v2h-4l1 3-15-2z" fill="#DB5D69"/>
<path transform="translate(642,878)" d="m0 0h17l7 2v4l-3 1-3-3-8-2-10-1z" fill="#BD4550"/>
<path transform="translate(787,239)" d="m0 0 2 4v16l-2 4-1-5v-16z" fill="#E14654"/>
<path transform="translate(699,1063)" d="m0 0 3 1-8 12h-3l1-7z" fill="#E1404E"/>
<path transform="translate(607,941)" d="m0 0 6 2v2l-4 1 1 4 2 1-1 3h-6l1-6 1-3z" fill="#B31322"/>
<path transform="translate(244,915)" d="m0 0h11l6 1-2 2h-22l2-2z" fill="#E53747"/>
<path transform="translate(609,859)" d="m0 0 5 1v2h6v2l-11 2-5-2 1-2h3z" fill="#DD5662"/>
<path transform="translate(746,674)" d="m0 0 2 2v7l2 2-1 5-2 5-2-3v-12l-2 1v-3l2-1z" fill="#C4676F"/>
<path transform="translate(834,1942)" d="m0 0 3 1-2 10-1 13-2 1v-23z" fill="#E53545"/>
<path transform="translate(403,1083)" d="m0 0 4 4 2 5-1 4h-6l1-4 2-3-3-1z" fill="#F5EAEB"/>
<path transform="translate(464,868)" d="m0 0 2 4 2 6 2 2-1 2h-6l-1-8h2z" fill="#B52331"/>
<path transform="translate(446,871)" d="m0 0 9 1h7l1 2-1 2-18-1h-5l3-1v-2z" fill="#DF4E5B"/>
<path transform="translate(817,1806)" d="m0 0h1l1 15-1 2-3-1-1-12 2-3z" fill="#D56A73"/>
<path transform="translate(681,1055)" d="m0 0 7 1 10 5v1h-7l-9-4-7-1v-1z" fill="#BD4651"/>
<path transform="translate(1354,1038)" d="m0 0h2v2h-9v2l-11 1-2 1-3-3 1-1z" fill="#D86A74"/>
<path transform="translate(555,896)" d="m0 0 13 1v2h-10l-2-1v2l-3 1-1-3h-11v-1z" fill="#CA7179"/>
<path transform="translate(1050,876)" d="m0 0h2v5l-5 4h-4l1-5 2-3z" fill="#DD3E4D"/>
<path transform="translate(1347,1040)" d="m0 0h16l7 1v2h-13l-10-1z" fill="#E43948"/>
<path transform="translate(1571,974)" d="m0 0 21 3-2 2-14-1-9-1z" fill="#E04B59"/>
<path transform="translate(1355,953)" d="m0 0h8l1 1 10 1v2l-6 1h-7l-1-2h-7v-2z" fill="#B21322"/>
<path transform="translate(1327,908)" d="m0 0 15 1v2h-15l-21-1v-1z" fill="#C66C74"/>
<path transform="translate(766,725)" d="m0 0 3 1 1 14-4 1-1-11-1-4z" fill="#B8303D"/>
<path transform="translate(862,371)" d="m0 0 2 1 1 8v11h-2l-2-10v-8z" fill="#B31726"/>
<path transform="translate(756,330)" d="m0 0 4 2h4l1 5-2 1h-6l-1-5z" fill="#DF4E5B"/>
<path transform="translate(713,300)" d="m0 0 3 4-1 4-3 3-4-2 1-4 1-3z" fill="#DC4451"/>
<path transform="translate(931,1259)" d="m0 0 2 1-1 3 1 4-4 4v7l-2-4v-10z" fill="#DA626C"/>
<path transform="translate(518,892)" d="m0 0h8l2 1-1 4-2 1-7-1-1-4z" fill="#F4E9EA"/>
<path transform="translate(392,892)" d="m0 0h27l4 1v2l-16-1-15-1z" fill="#C25C65"/>
<path transform="translate(733,604)" d="m0 0h3v20l-2-1-2-13z" fill="#B21322"/>
<path transform="translate(884,229)" d="m0 0h1l-1 17-3 9-2 1 4-24z" fill="#C3616A"/>
<path transform="translate(848,1855)" d="m0 0h2l1 16 3 2-4 2-2-2-1-15z" fill="#B31A29"/>
<path transform="translate(468,1080)" d="m0 0h3v12l-4 1v-5l-1-2z" fill="#F4E8E9"/>
<path transform="translate(562,943)" d="m0 0h5l2 2-1 4-6 1-2-2 1-4z" fill="#EFDEDF"/>
<path transform="translate(1454,909)" d="m0 0h20l1 2-5 1h-10l-6-2z" fill="#E24452"/>
<path transform="translate(745,1208)" d="m0 0 2 4-5 13-3 9h-1l1-9 5-13z" fill="#BD4752"/>
<path transform="translate(1387,969)" d="m0 0 5 1-4 2-10 4-3-1v-3z" fill="#E3404E"/>
<path transform="translate(423,893)" d="m0 0 25 1v2h-22l-3-1z" fill="#B62835"/>
<path transform="translate(886,1439)" d="m0 0h2l2 19-1 2h-2l-1-10-1-2z" fill="#B21322"/>
<path transform="translate(756,1389)" d="m0 0 1 2h2l2 6-1 8h-3l-1 2 1-8z" fill="#BD404C"/>
<path transform="translate(1e3 1089)" d="m0 0 1 2h8l4 5 2 2h-5l-5-4-7-1z" fill="#C2414D"/>
<path transform="translate(1376,1009)" d="m0 0 26 2v2h-12l-14-2z" fill="#B9333F"/>
<path transform="translate(214,967)" d="m0 0 3 1 1 5 3 1 11 1-4 2h-9l-4-2z" fill="#B9333F"/>
<path transform="translate(414,873)" d="m0 0h2v2l10-1v2h-9v4h-3v-4h-16l-1 2v-3h17z" fill="#DAAEB2"/>
<path transform="translate(724,859)" d="m0 0 4 8 2 1-1 3h-2v2h2v3h-3v-5h-2l-1-9z" fill="#BE2130"/>
<path transform="translate(732,788)" d="m0 0 1 2h2l-1 16-2 4-1-4z" fill="#DF4D5A"/>
<path transform="translate(726,772)" d="m0 0h1v10l-1 12h-2v-17z" fill="#E63142"/>
<path transform="translate(978,744)" d="m0 0 2 3 2-1 1 5 3 1-1 7-3-1v-4h-3l-2-9z" fill="#DF4F5C"/>
<path transform="translate(933,441)" d="m0 0 2 3v25h-1l-1-5z" fill="#E14553"/>
<path transform="translate(849,1672)" d="m0 0 5 2v3h-2l1 6-1 8-2 1v-15z" fill="#B21322"/>
<path transform="translate(817,1657)" d="m0 0h1v16l2 1h-4l-1-6v-10z" fill="#BD444F"/>
<path transform="translate(932,1334)" d="m0 0 1 2 2 9 1 7h-2l-4-10v-7z" fill="#B31827"/>
<path transform="translate(1436,946)" d="m0 0h28v1l-13 1h-19z" fill="#DB5D69"/>
<path transform="translate(373,915)" d="m0 0h12l12 2v2h-10l-1-1-13-2z" fill="#B21322"/>
<path transform="translate(957,842)" d="m0 0 3 1 2 6-5-1v2h-4v-3l-2-1 5-3z" fill="#DE4351"/>
<path transform="translate(980,807)" d="m0 0 3 1v7l-4 1-3-1 1-4 1-3z" fill="#F1E0E2"/>
<path transform="translate(971,804)" d="m0 0 3 1-3 12-2 4h-2l3-14z" fill="#E33F4D"/>
<path transform="translate(902,467)" d="m0 0h1v31l-2 3-1-5 1-1-2-2h2z" fill="#B31322"/>
<path transform="translate(892,1659)" d="m0 0 4 1-1 6 1 15h-2l-2-16z" fill="#CF9499"/>
<path transform="translate(776,1264)" d="m0 0h1l1 15h-2v9l-2-1v-15h2l-1-6z" fill="#B21322"/>
<path transform="translate(942,1100)" d="m0 0h6l7 2-1 16-2-1-1-13-9-3z" fill="#DC5C68"/>
<path transform="translate(748,1101)" d="m0 0h1l3 9 3 5-3 2-2-6h-2v-4h-2v-5z" fill="#B41E2C"/>
<path transform="translate(735,1090)" d="m0 0h2l3 3 6 1v-2l7 1 1 3-4 1-1-1h-11l-3-3z" fill="#B41E2C"/>
<path transform="translate(95,980)" d="m0 0 12 1 4 1v2h-12l-6-1z" fill="#DA4451"/>
<path transform="translate(1414,959)" d="m0 0 28 1v1l-25 1-12-1v-1z" fill="#C4676F"/>
<path transform="translate(1104,859)" d="m0 0h15l1 2h-6l-1 5-3-1v-4l-6-1z" fill="#E89199"/>
<path transform="translate(750,813)" d="m0 0h1l1 21h-2l-1-2v-17z" fill="#B21322"/>
<path transform="translate(744,789)" d="m0 0h1l1 17-2 2-2-5v-10z" fill="#B82F3B"/>
<path transform="translate(824,324)" d="m0 0h2l-1 18-1 2h-2v-9z" fill="#B21322"/>
<path transform="translate(822,302)" d="m0 0 1 4 1 10-1 10h-2v-12l1-7h-2l1-4z" fill="#BF4551"/>
<path transform="translate(828,1801)" d="m0 0h1l1 7v17l-2-4-1-18z" fill="#B21322"/>
<path transform="translate(901,1514)" d="m0 0 3 2-1 6-3 5h-2v-7z" fill="#DF4B58"/>
<path transform="translate(433,1010)" d="m0 0h13l11 1v2l-7 1v-1l-16-1z" fill="#B21322"/>
<path transform="translate(1468 1e3)" d="m0 0h29v1h-25v2h-10l-2-2z" fill="#CF8E93"/>
<path transform="translate(364,889)" d="m0 0h16l9 1v2h-10l-15-2z" fill="#C36069"/>
<path transform="translate(850,375)" d="m0 0h2l1 6v9l-1 3h-2z" fill="#B21322"/>
<path transform="translate(897,344)" d="m0 0 4 1 1 7 1 3-1 5-3-2v-10h-2z" fill="#E14654"/>
<path transform="translate(963,1089)" d="m0 0 12 1v5l-8-1-4-3z" fill="#E14754"/>
<path transform="translate(777,1031)" d="m0 0 4 3 4 2-2 3-6-1-2-1v-5z" fill="#B21322"/>
<path transform="translate(467,1015)" d="m0 0h2v2h4l-2 5-3 5-3-1 3-7-4-1z" fill="#C63A47"/>
<path transform="translate(111,943)" d="m0 0h10l11 1v2h-13l-8-1z" fill="#BE4A55"/>
<path transform="translate(1120,915)" d="m0 0h4l2 5 2 2-2 2-5-1-1-2z" fill="#B91423"/>
<path transform="translate(1143,913)" d="m0 0h19l-3 2-12-1v5l-5-1z" fill="#DFB8BB"/>
<path transform="translate(955,571)" d="m0 0 4 2-2 7h-5l1-6z" fill="#DF4351"/>
<path transform="translate(759,1129)" d="m0 0 3 1h-2l1 2 2-1v7h-2l-2 2-3 1z" fill="#DE535F"/>
<path transform="translate(1039,1093)" d="m0 0 5 2-1 2h-3l-1 3h-6v-3z" fill="#DD5662"/>
<path transform="translate(1279,1053)" d="m0 0h23l-4 2h-20z" fill="#DB5E69"/>
<path transform="translate(779,1030)" d="m0 0h8l1 4-1 1h-6l-3-2z" fill="#EBD4D6"/>
<path transform="translate(1546,993)" d="m0 0h5v2l3-2 6 2v-2l3 1-1 2h-23v-1h7z" fill="#CF9499"/>
<path transform="translate(468,991)" d="m0 0 3 1v8h-4l-1-1v-7z" fill="#F3E5E6"/>
<path transform="translate(1509,991)" d="m0 0 20 1v3l-8-2v2h-6v-1l-8-1z" fill="#CF9499"/>
<path transform="translate(717,722)" d="m0 0h2l1 7h-9l1-4z" fill="#DF505D"/>
<path transform="translate(759,649)" d="m0 0 2 1-1 2h2l1 6-2 1 1 2h-2l-1 2-1-3 1-3-1-4h-2v-2z" fill="#BC313E"/>
<path transform="translate(897,1918)" d="m0 0 2 1v18l-1 5h-1z" fill="#E33D4C"/>
<path transform="translate(791,1587)" d="m0 0 1 2h2v10l3 4-4-1-2-6v-4l-2-1z" fill="#DC5763"/>
<path transform="translate(755,1427)" d="m0 0 4 1 3 5-1 9-3-1v-9h-2z" fill="#B21322"/>
<path transform="translate(750,1324)" d="m0 0h3v3h6l-2 16h-1l-1-14-4-1-2-3z" fill="#C3626B"/>
<path transform="translate(902,1099)" d="m0 0h2l1 6 3 1-2 2-5-1-1-1v-5z" fill="#B21322"/>
<path transform="translate(442,1046)" d="m0 0h8l2 2 8 1 1 2h-9l-4-2-9-1z" fill="#C4656E"/>
<path transform="translate(112,909)" d="m0 0 11 2-2 2-8 2h-4l2-5z" fill="#E43444"/>
<path transform="translate(437,868)" d="m0 0h15l8 1-2 2-18-1z" fill="#DE515E"/>
<path transform="translate(754,753)" d="m0 0h1v19l-3 1v-11l1-1z" fill="#B21322"/>
<path transform="translate(743,724)" d="m0 0h2v17h-2v-13h-3v-3z" fill="#BD444F"/>
<path transform="translate(735,572)" d="m0 0 3 3v7h-2l-1 4h-1l-1-13z" fill="#B93441"/>
<path transform="translate(907,557)" d="m0 0h2v18l-3-3z" fill="#B21322"/>
<path transform="translate(825,1890)" d="m0 0h1v14l-2 6h-1v-11z" fill="#E43B4A"/>
<path transform="translate(917,1742)" d="m0 0 3 1-1 9-7 1 1-4 2-1z" fill="#E04452"/>
<path transform="translate(772,1549)" d="m0 0 2 3v15l-2 1v-12l-2-1z" fill="#B21322"/>
<path transform="translate(1092,1061)" d="m0 0h11l12 1v1l-16 1-7-1z" fill="#C0515C"/>
<path transform="translate(800,1031)" d="m0 0 4 5v4l-6-1-1-5z" fill="#B21322"/>
<path transform="translate(1381,930)" d="m0 0h8l5 2-1 2-9-1-1 1h-6l-1 2v-3h6z" fill="#D6737C"/>
<path transform="translate(161,918)" d="m0 0h21l-4 2h-20z" fill="#E2414F"/>
<path transform="translate(1060,916)" d="m0 0 2 4 3 3-2 2-5-1-1-1v-5z" fill="#B21322"/>
<path transform="translate(572,883)" d="m0 0 13 1 6 2v1h-8l-11-2z" fill="#B21322"/>
<path transform="translate(626,875)" d="m0 0 15 1v2h-13l-10-1v-1z" fill="#C0515C"/>
<path transform="translate(924,795)" d="m0 0h1l1 7v3h-4l-1-1v-7z" fill="#B21322"/>
<path transform="translate(932,473)" d="m0 0h2l1 9-2 5h-2v-2h-2v-2h2v-8z" fill="#E04A57"/>
<path transform="translate(852,1776)" d="m0 0h4v18l-2-1-1-15z" fill="#E82A3B"/>
<path transform="translate(833,1767)" d="m0 0h1l2 19-3 1-1-2z" fill="#BC434E"/>
<path transform="translate(805,1667)" d="m0 0h1v16l-2 1-1-10h-1v-5h3z" fill="#B91423"/>
<path transform="translate(779,1657)" d="m0 0 2 1 1 8 3-4v8h-5l-1-5z" fill="#E43948"/>
<path transform="translate(769,1626)" d="m0 0 3 1 2 10-3 3-2-6z" fill="#BC404B"/>
<path transform="translate(1381,1019)" d="m0 0 4 1-1 2-7 2-6-1 3-3z" fill="#E43C4B"/>
<path transform="translate(1358,931)" d="m0 0h9l8 1v3l-16-2z" fill="#B21322"/>
<path transform="translate(569,871)" d="m0 0h19l6 2v2h-6l-4-2-15-1z" fill="#C56A72"/>
<path transform="translate(464,862)" d="m0 0 3 1v10l-2-1v-4l-6-2v-2z" fill="#BD4651"/>
<path transform="translate(735,829)" d="m0 0h6 3l2 4h-3v6h-1l-2-6h-5z" fill="#C74450"/>
<path transform="translate(954,801)" d="m0 0h2l2 4-4 2h-3l1 11-2 3v-15h2z" fill="#D96973"/>
<path transform="translate(738,420)" d="m0 0h2l2 10-2 6h-1l-1-9-1-4z" fill="#B41C2A"/>
<path transform="translate(912,353)" d="m0 0h1v7l-3 10-2 2 2-16z" fill="#BA3945"/>
<path transform="translate(778,333)" d="m0 0h3l-1 4-6 14-3-1 4-10h2v-6z" fill="#B9333F"/>
<path transform="translate(801,1702)" d="m0 0 2 2-1 18-2 2v-11z" fill="#DD5562"/>
<path transform="translate(797,1658)" d="m0 0 6 1v10h-1v-8h-2v6l-4-1z" fill="#D7717A"/>
<path transform="translate(778,1515)" d="m0 0h2v13l-1 7h-1l-1-19z" fill="#B21322"/>
<path transform="translate(932,1362)" d="m0 0 4 4v12h-3v-8z" fill="#B21322"/>
<path transform="translate(937,1094)" d="m0 0 4 1v2l3 1v2h-2v3h-2l-3-5h-2v-3z" fill="#BE313E"/>
<path transform="translate(911,974)" d="m0 0h3l1 2 4 2-3 3-5-1-1-5z" fill="#B21322"/>
<path transform="translate(241,971)" d="m0 0h11l-3 1v4l-5 2z" fill="#DB5F6A"/>
<path transform="translate(558,945)" d="m0 0h2l2 4 4 2-2 2h-6l-1-7z" fill="#B21322"/>
<path transform="translate(922,913)" d="m0 0h2l2 6v3h-5l-1-7z" fill="#B21322"/>
<path transform="translate(398,876)" d="m0 0h12l-1 3-13 1v-2h2z" fill="#EC1B2E"/>
<path transform="translate(375,875)" d="m0 0h14l3 2-3 1-15-1z" fill="#E33D4C"/>
<path transform="translate(911,468)" d="m0 0h1l-1 22h-2l-1-7 2-13z" fill="#B21322"/>
<path transform="translate(835,256)" d="m0 0h2v13l-2 4h-1v-10z" fill="#BA3A46"/>
<path transform="translate(859,1697)" d="m0 0 2 2 1 4v10h-2l-1-2z" fill="#E53444"/>
<path transform="translate(780,1634)" d="m0 0h1v16l-1 5h-1l-1-19z" fill="#DB616B"/>
<path transform="translate(943,1195)" d="m0 0 2 1v12l-2 4-1-2v-9z" fill="#E04A58"/>
<path transform="translate(758,1180)" d="m0 0h2v2l5 1-1 6-1 2-2-1-1-5-3-2z" fill="#BC424D"/>
<path transform="translate(776,1105)" d="m0 0h2l1 3 3 1v3l-4 1-4-2 1-5z" fill="#B21322"/>
<path transform="translate(1186,1071)" d="m0 0h5l1 3-1 2-7 1v-5z" fill="#DE4D5A"/>
<path transform="translate(107,980)" d="m0 0 18 1v2h-14l-4-1z" fill="#BB3B47"/>
<path transform="translate(1424,920)" d="m0 0h24l-3 2h-14l-7-1z" fill="#DB5D69"/>
<path transform="translate(1062,915)" d="m0 0h5l1 4-3 3-4-2z" fill="#F2E4E6"/>
<path transform="translate(725,883)" d="m0 0h8l4 3v2l-4 1-1-2-6-2-1 2z" fill="#BB3B47"/>
<path transform="translate(765,748)" d="m0 0 5 1 1 1v7l-3 1-2-6z" fill="#B72A37"/>
<path transform="translate(681,711)" d="m0 0 5 1-1 5-6 1 1-6z" fill="#DD4A57"/>
<path transform="translate(829,1651)" d="m0 0 2 3 1 15h-3z" fill="#B21322"/>
<path transform="translate(850,1596)" d="m0 0h1v17l-1 2h-2l1-16z" fill="#B21322"/>
<path transform="translate(764,1125)" d="m0 0 3 2-1 6v3l-1 5-2-1v-8z" fill="#B21322"/>
<path transform="translate(538,1046)" d="m0 0h16l6 1-1 3-21-3z" fill="#B21322"/>
<path transform="translate(220 1e3)" d="m0 0 12 1v2h-10l-13-1v-1z" fill="#C25C65"/>
<path transform="translate(104,994)" d="m0 0 18 2v2h-8l-7-1z" fill="#C15862"/>
<path transform="translate(745,943)" d="m0 0h6l1 4-2 2-5-1z" fill="#EDD8DA"/>
<path transform="translate(436,926)" d="m0 0 7 1 3 3-2 1h-6l-1-2-6-1v-1z" fill="#BC404B"/>
<path transform="translate(686,882)" d="m0 0h5v4l3-1 3 2h-12l1-2-6-1v-1z" fill="#C15862"/>
<path transform="translate(731,541)" d="m0 0h1v13l-2 6h-1l1-17z" fill="#DE525F"/>
<path transform="translate(836,1901)" d="m0 0 2 3v15l-2-3 1-6h-2l-1-7z" fill="#C15760"/>
<path transform="translate(827,1737)" d="m0 0h2l1 2h3l-1 7-1 6h-1l-1-10-2-1z" fill="#BE4C56"/>
<path transform="translate(880,1665)" d="m0 0 3 2 2 4h1l1 10-3-1-2-9-3-5z" fill="#CF9499"/>
<path transform="translate(786,1551)" d="m0 0h2v14h-3z" fill="#B21322"/>
<path transform="translate(751,1496)" d="m0 0h1v12l-1 2 3 1-3 1-1 2-1-3 1-9z" fill="#C25A64"/>
<path transform="translate(758,1377)" d="m0 0 3 3 1 10h-2l-3-8-1-4z" fill="#B41D2B"/>
<path transform="translate(760,1224)" d="m0 0h3l1 9-1 5-3-3z" fill="#DF4D5A"/>
<path transform="translate(748,1123)" d="m0 0 1 2 5-1-1 4h5v2h-7l-1-3-3-1z" fill="#BC414C"/>
<path transform="translate(906,1097)" d="m0 0 4 2-1 5-4 1-1-6z" fill="#EEDADC"/>
<path transform="translate(616,1076)" d="m0 0 6 1-4 4-7 1 1-3z" fill="#E03C4B"/>
<path transform="translate(613,1053)" d="m0 0 11 1v2l-22-1v-1z" fill="#C15760"/>
<path transform="translate(1246,1048)" d="m0 0h11l-3 4-9-1-5-1v-1z" fill="#D57981"/>
<path transform="translate(1080,970)" d="m0 0 3 3 3 1-1 3-4 1-3-2 1-5z" fill="#B21322"/>
<path transform="translate(1212,943)" d="m0 0h5l1 4-2 2-5-1z" fill="#EEDADC"/>
<path transform="translate(1349,898)" d="m0 0h2l-1 3-7 2h-8v-1h5l1-3z" fill="#DD5763"/>
<path transform="translate(1187,898)" d="m0 0 2 2 5 2-2 3h-6l-1-5z" fill="#B51322"/>
<path transform="translate(721,898)" d="m0 0 1 3h5v3l-5 1-3-1v-5z" fill="#B51322"/>
<path transform="translate(509,885)" d="m0 0h14l-1 3h-13l-2-2z" fill="#B21625"/>
<path transform="translate(923,852)" d="m0 0h1l1 5 2 2-1 2-5-1-1-5z" fill="#B21322"/>
<path transform="translate(855,1740)" d="m0 0 4 1h3l1 6-2 4-1-3 1-4-5 1z" fill="#E24452"/>
<path transform="translate(824,1670)" d="m0 0h3v20l-2-1-1-6 1-9z" fill="#B21322"/>
<path transform="translate(774,1676)" d="m0 0 1 4-4 8h-2l1-7z" fill="#E33D4C"/>
<path transform="translate(757,1343)" d="m0 0h2l1 6-1 2-1 12h-1l-1-19z" fill="#C0555F"/>
<path transform="translate(734,1089)" d="m0 0 2 4v2h6l1 4-4 1-4-4z" fill="#DD5965"/>
<path transform="translate(1294,1035)" d="m0 0h15l4 2h-20z" fill="#DC5C68"/>
<path transform="translate(538,1016)" d="m0 0h4v2h2v4h-7z" fill="#EFDCDE"/>
<path transform="translate(232 1e3)" d="m0 0 16 1v2h-11l-5-1z" fill="#BB3B47"/>
<path transform="translate(923,982)" d="m0 0h2l2 7-2 2h-3l-1-7z" fill="#B21322"/>
<path transform="translate(363,951)" d="m0 0 10 1 7 2v1h-9l-8-2z" fill="#B21322"/>
<path transform="translate(1075,916)" d="m0 0 1 3 5 1-3 3-5-1-1-3z" fill="#B21322"/>
<path transform="translate(979,797)" d="m0 0h4l-1 7h-5l1-6z" fill="#F0DFE1"/>
<path transform="translate(729,561)" d="m0 0h1l1 5 4-4 1 10-2 1-2-4-3-2z" fill="#D85864"/>
<path transform="translate(733,559)" d="m0 0h5v10h-2l-2-5-2-1z" fill="#B21322"/>
<path transform="translate(768,438)" d="m0 0 2 1v2h3l-1 10h-2v-7h-2z" fill="#B21322"/>
<path transform="translate(839,1860)" d="m0 0h1l1 17-2 4h-1z" fill="#C25B64"/>
<path transform="translate(807,1605)" d="m0 0 1 3-1 13-2 1v-8l-1-1v-5z" fill="#E24250"/>
<path transform="translate(758,1563)" d="m0 0h1l-1 9-3 2-3-4h2l1-4z" fill="#E04956"/>
<path transform="translate(929,1269)" d="m0 0h4v9h-3-1z" fill="#E8293A"/>
<path transform="translate(923,1100)" d="m0 0h2l1 8-4 1-1-1v-6z" fill="#B31322"/>
<path transform="translate(1405,1066)" d="m0 0h2l1 3 10 2-2 2h-8l-3-2z" fill="#BC404C"/>
<path transform="translate(1126,990)" d="m0 0 3 3 3 2-2 2h-5l-2-4z" fill="#B21322"/>
<path transform="translate(1209,944)" d="m0 0h2l1 4 4 2-1 1h-7l-1-5z" fill="#B21322"/>
<path transform="translate(743,944)" d="m0 0h2l1 4 4 2-1 1h-7l-1-5z" fill="#B21322"/>
<path transform="translate(696,936)" d="m0 0h9l-2 4h-7l-1-2z" fill="#B21322"/>
<path transform="translate(1323,897)" d="m0 0 8 1-2 4-7-1v-3z" fill="#E33E4D"/>
<path transform="translate(676,601)" d="m0 0 5 3 1 5 1 2-5-1-3-5z" fill="#BC404C"/>
<path transform="translate(833,274)" d="m0 0h1l1 9-2 5-2-1v-8h2z" fill="#C33A46"/>
<path transform="translate(867,1649)" d="m0 0h2l1 5h2v5l-2-1v-2l-5-1z" fill="#E24351"/>
<path transform="translate(805,1646)" d="m0 0h2v13l1 2h-2l-1 2-1-11z" fill="#B21322"/>
<path transform="translate(752,1487)" d="m0 0h2l3 12-3 1-1-8h-2l-1-4z" fill="#B21322"/>
<path transform="translate(761,1270)" d="m0 0 1 3h2v8l-3 6-2-1 2-3z" fill="#B31A29"/>
<path transform="translate(1080 1e3)" d="m0 0 1 3-4 6-4 3 2-6 3-5z" fill="#B21322"/>
<path transform="translate(1066,990)" d="m0 0 6 4-2 3-5-1-1-4z" fill="#B21322"/>
<path transform="translate(1082,969)" d="m0 0h6l1 4-1 1h-5l-2-3z" fill="#ECD7D9"/>
<path transform="translate(1163,936)" d="m0 0h8l1 2-3 2h-7z" fill="#B21322"/>
<path transform="translate(1049,916)" d="m0 0h2v4l3 1-1 2h-5l-2-4z" fill="#B51322"/>
<path transform="translate(993,744)" d="m0 0h1l-1 8h-2l1 5-3-1v-8h2z" fill="#DD5561"/>
<path transform="translate(917,537)" d="m0 0 2 1 1 5-1 10h-2z" fill="#B21322"/>
<path transform="translate(918,487)" d="m0 0 2 1 1 9-1 5h-2z" fill="#B21322"/>
<path transform="translate(825,281)" d="m0 0 3 1-1 9 1 2-2 2-2-8v-5z" fill="#DB606B"/>
<path transform="translate(793,1655)" d="m0 0h1v14l-3-1v-8z" fill="#D86A74"/>
<path transform="translate(899,1584)" d="m0 0h1v6l-1 2 2 7-3-1-2-3 1-6z" fill="#B82F3C"/>
<path transform="translate(925,1403)" d="m0 0h2v11l-3-1-1-8z" fill="#B9333F"/>
<path transform="translate(774,1234)" d="m0 0h2l1 2h2v7l-2 3h-2v-7z" fill="#B52330"/>
<path transform="translate(1339,1007)" d="m0 0 15 1-2 7h-1l-1-5-11-1z" fill="#B21322"/>
<path transform="translate(607,991)" d="m0 0h2v4h2l-1 3-3 1-2-1v-6z" fill="#B71323"/>
<path transform="translate(239,946)" d="m0 0 7 1 1 6h-2v-3l-3 2h-3z" fill="#D76A73"/>
<path transform="translate(464,920)" d="m0 0h3v8l-5-1 1-6z" fill="#B21322"/>
<path transform="translate(925,912)" d="m0 0h4v6l-4 1-1-1v-5z" fill="#EAD2D4"/>
<path transform="translate(903,899)" d="m0 0h2v5l2 1-2 2-4-1-1-3z" fill="#B21322"/>
<path transform="translate(926,794)" d="m0 0 3 1v7h-4v-7z" fill="#E6C9CB"/>
<path transform="translate(755,581)" d="m0 0h1l1 16-2 2-2-6 1-4-1-3h2z" fill="#B21322"/>
<path transform="translate(939,544)" d="m0 0 3 3 1 5-2 3-1-1v-5l-3 1 1-5z" fill="#E33D4C"/>
<path transform="translate(944,541)" d="m0 0h3l2 2v4l2 1-4-1-4 1-1-3z" fill="#D86A74"/>
<path transform="translate(907,445)" d="m0 0h1l1 12v8l-2 1-1-14z" fill="#CF9499"/>
<path transform="translate(890,1713)" d="m0 0 2 4 2 8-3 1-1 2z" fill="#B8303C"/>
<path transform="translate(889,1526)" d="m0 0 1 4-1 12h-2l-1-8z" fill="#B21725"/>
<path transform="translate(771,1439)" d="m0 0h1l1 11-1 3h-2v-12z" fill="#B21322"/>
<path transform="translate(755,1313)" d="m0 0 3 1v9h-3l-1-3 1-1-1-5z" fill="#B72B39"/>
<path transform="translate(979,1137)" d="m0 0h3v6l-1 1h-5l2-6z" fill="#F4E9EA"/>
<path transform="translate(779,1104)" d="m0 0h5l1 4-1 1h-5l-1-4z" fill="#EBD4D6"/>
<path transform="translate(778,1086)" d="m0 0 1 2 6 1-3 3h-5l-1-4z" fill="#B21322"/>
<path transform="translate(1014,1061)" d="m0 0 5 2v3 4l-4-1z" fill="#B21322"/>
<path transform="translate(150,999)" d="m0 0h11l7 1v2h-8l-10-2z" fill="#C0555F"/>
<path transform="translate(552,865)" d="m0 0 5 1v2l4 1-10 2-1-4h2z" fill="#DD5561"/>
<path transform="translate(925,851)" d="m0 0 4 1v5l-4 1-1-1v-5z" fill="#E5C7C9"/>
<path transform="translate(904,825)" d="m0 0 4 5-3 3-3-1-1-4z" fill="#B21322"/>
<path transform="translate(796,1631)" d="m0 0 2 3 1 4v7l-2-1-2-11z" fill="#CF9499"/>
<path transform="translate(773,1499)" d="m0 0h1v9l-2 4h-1v-10z" fill="#BA3945"/>
<path transform="translate(746,1136)" d="m0 0 3 1v11l-2-1-1-3z" fill="#E33F4E"/>
<path transform="translate(798,1118)" d="m0 0 5 3-2 4-5-2 1-4z" fill="#B21322"/>
<path transform="translate(414,1052)" d="m0 0h3v8h-4z" fill="#F7EFF0"/>
<path transform="translate(915,972)" d="m0 0 6 1-1 4h-5l-1-4z" fill="#EEDADC"/>
<path transform="translate(513,948)" d="m0 0 2 1v2l3 1-2 3-5-1 1-5z" fill="#B21322"/>
<path transform="translate(846,917)" d="m0 0 7 1-2 3h-8l1-3z" fill="#B21322"/>
<path transform="translate(1139,916)" d="m0 0h3l3 3-1 3h-5l-1-5z" fill="#B21322"/>
<path transform="translate(474,882)" d="m0 0h10l-9 6h-3l1-3 2-1z" fill="#CA767D"/>
<path transform="translate(723,866)" d="m0 0h1v5h2v5l-2-1v-1h-6l1-3h4z" fill="#D86B75"/>
<path transform="translate(739,753)" d="m0 0h1l1 15h-2l-1 2v-16z" fill="#CF9499"/>
<path transform="translate(757,704)" d="m0 0h1v9l-3 3v-2h-2l1-5 2-1z" fill="#D95F6A"/>
<path transform="translate(918,513)" d="m0 0 2 2v10h-2l-1-3v-8z" fill="#B21322"/>
<path transform="translate(735,497)" d="m0 0 2 2 1 8-2 4h-1z" fill="#B72C39"/>
<path transform="translate(824,297)" d="m0 0 2 1-1 12h-2v-4l-2-1z" fill="#B51B2A"/>
<path transform="translate(786,279)" d="m0 0 5 1v3l2 2-1 3-3 1-1-5-2-2z" fill="#E33F4E"/>
<path transform="translate(839,238)" d="m0 0h1l1 14-4 2z" fill="#E24351"/>
<path transform="translate(899,1822)" d="m0 0 3 3-1 4-1 2-3-1v-5h2z" fill="#E92739"/>
<path transform="translate(932,1392)" d="m0 0 2 2 1 3h2l-1 6-2 1-1-4-2-3z" fill="#B21322"/>
<path transform="translate(933,1379)" d="m0 0 3 4v10h-1l-3-9-1-4z" fill="#B21322"/>
<path transform="translate(1164,1061)" d="m0 0h14l2 1v2l-5-1-10-1v3l-3-1 2-1z" fill="#D7727B"/>
<path transform="translate(656,1053)" d="m0 0 3 1v2l3 1-12 1v-2l6-1z" fill="#CC7A82"/>
<path transform="translate(193 1e3)" d="m0 0 13 1v2h-11l-2-1z" fill="#BD434F"/>
<path transform="translate(1128,989)" d="m0 0h5l1 4-5 1-2-4z" fill="#EAD2D4"/>
<path transform="translate(1250,985)" d="m0 0 5 3-1 3h-5l-1-5z" fill="#B21322"/>
<path transform="translate(1011,973)" d="m0 0 1 3 3 1v2l-5 1-2-4z" fill="#B21322"/>
<path transform="translate(607,957)" d="m0 0h2l3 4v2l-5 1-1-1v-5z" fill="#B21322"/>
<path transform="translate(411,946)" d="m0 0 6 1v3l-6 1-2-3z" fill="#EAD2D4"/>
<path transform="translate(611,945)" d="m0 0 4 1-1 4-4 1-1-5z" fill="#EDD9DB"/>
<path transform="translate(576,945)" d="m0 0h6l1 4-4 1-3-2z" fill="#F2E4E5"/>
<path transform="translate(526,860)" d="m0 0 8 1-1 2h-4v2h-12v-1l10-1z" fill="#D7727B"/>
<path transform="translate(758,733)" d="m0 0 1 4 2 6-1 7-2-1 1-6h-2v-9z" fill="#CE6D75"/>
<path transform="translate(723,725)" d="m0 0 1 2 3-1v18l-2-3v-10l-2-3z" fill="#CF9499"/>
<path transform="translate(754,687)" d="m0 0h2l1 7-1 2h-2l-2-5v-3z" fill="#BE4853"/>
<path transform="translate(848,129)" d="m0 0 2 8 1 2v8h-1l-2-6-1-2v-7z" fill="#CF9499"/>
<path transform="translate(832,1788)" d="m0 0h1l2 8v4h-2l-2-3z" fill="#B21322"/>
<path transform="translate(820,1758)" d="m0 0h1v5h2l2 3 1 2-6-1-1-2v-6z" fill="#B31726"/>
<path transform="translate(799,1700)" d="m0 0h2l-2 13-3-4 1-7z" fill="#DE535F"/>
<path transform="translate(854,1603)" d="m0 0h2l4 11-3 1-3-9z" fill="#B21322"/>
<path transform="translate(994,1430)" d="m0 0 3 3 2-1 1 3-2 5-5-5z" fill="#BB3C48"/>
<path transform="translate(762,1200)" d="m0 0 2 1v5h2v3h-3l-1 2-1-10z" fill="#DC5B67"/>
<path transform="translate(754,1102)" d="m0 0 4 1 3 1v5l-3 1-1-4-3-1z" fill="#B21322"/>
<path transform="translate(307,1054)" d="m0 0 2 1-1 4-2 2h-4l1-4 4-1z" fill="#E13D4C"/>
<path transform="translate(976,1054)" d="m0 0 3 1 2 4-4 2-2-1v-5z" fill="#B21322"/>
<path transform="translate(268,1051)" d="m0 0h5l-1 4 2 1-9-1 1-3z" fill="#DB606B"/>
<path transform="translate(168 1e3)" d="m0 0 12 1v2h-10l-2-1z" fill="#BC414C"/>
<path transform="translate(174,991)" d="m0 0 3 1-1 2h7l-3 2h-7v-2l-6-1v-1l7 1z" fill="#B21322"/>
<path transform="translate(784,985)" d="m0 0 2 1v2h3l-1 3h-5l-1-5z" fill="#B21322"/>
<path transform="translate(926,980)" d="m0 0 3 1v6h-4v-6z" fill="#E3C1C4"/>
<path transform="translate(952,972)" d="m0 0 7 1v3l-6 1-2-1z" fill="#E9D0D2"/>
<path transform="translate(1190,897)" d="m0 0h5l2 3-1 1h-7v-3z" fill="#F0DFE1"/>
<path transform="translate(1069,874)" d="m0 0h2l-2 4-3 2h-3l1-5z" fill="#E24150"/>
<path transform="translate(725,744)" d="m0 0h2v2h2v8h-3z" fill="#D55F69"/>
<path transform="translate(947,728)" d="m0 0 3 2 2 6-1 3h-2l-2-7z" fill="#E24150"/>
<path transform="translate(665,665)" d="m0 0h2l2 6-4 2-2-2z" fill="#E24150"/>
<path transform="translate(851,99)" d="m0 0 2 1v11l-3 1z" fill="#D96872"/>
<path transform="translate(896,1833)" d="m0 0h1v12l-1 2h2v3l-3-1v-13z" fill="#CF9499"/>
<path transform="translate(794,1677)" d="m0 0 3 1 1 9-2 1-2-5z" fill="#DF505D"/>
<path transform="translate(761,1562)" d="m0 0h2v11l-3-1v-7z" fill="#E04C59"/>
<path transform="translate(770,1531)" d="m0 0 2 4h2l-1 5-2 1-2-4v-5z" fill="#B51826"/>
<path transform="translate(755,1407)" d="m0 0 2 3 1 7-3 1-1-7z" fill="#BC424E"/>
<path transform="translate(716,1080)" d="m0 0 2 1 1 7-2 2-3-9z" fill="#B72A38"/>
<path transform="translate(729,1067)" d="m0 0h3v3l3-1-1 4h-4l-2-5z" fill="#B31726"/>
<path transform="translate(1204,1052)" d="m0 0h6v2l2 1-11 1v-3z" fill="#B62633"/>
<path transform="translate(467 1e3)" d="m0 0 5 1-1 5-4-1z" fill="#E9CED1"/>
<path transform="translate(1118 1e3)" d="m0 0 4 1 1 5-4 1-1-1z" fill="#B21322"/>
<path transform="translate(1049,993)" d="m0 0h2l-1 3-9 2 1-4z" fill="#B21322"/>
<path transform="translate(205,987)" d="m0 0h11v3h-12z" fill="#B21322"/>
<path transform="translate(91,979)" d="m0 0h13l3 2h-11l-4 1z" fill="#B21322"/>
<path transform="translate(174,939)" d="m0 0h7l-4 3h-15v-1h12z" fill="#D47D85"/>
<path transform="translate(1173,898)" d="m0 0 5 4-2 2-5-1v-4z" fill="#B21322"/>
<path transform="translate(724,897)" d="m0 0h5v4h-7z" fill="#F0DEE0"/>
<path transform="translate(707,898)" d="m0 0 5 4-2 2-5-1v-4z" fill="#B21322"/>
<path transform="translate(462,860)" d="m0 0h4v2l-7 3h-3l1-3z" fill="#E03948"/>
<path transform="translate(758,711)" d="m0 0h1l-1 16h-1l-1-12z" fill="#B72A38"/>
<path transform="translate(740,705)" d="m0 0 4 2 1 1v6l-2 2-1-6-2-1z" fill="#B31726"/>
<path transform="translate(705,653)" d="m0 0 2 1-2 4-4 4-1-5h3z" fill="#E33E4D"/>
<path transform="translate(856,75)" d="m0 0h1v13l-2-2-2 1v-5l3-1z" fill="#BC1424"/>
<path transform="translate(850,1704)" d="m0 0 2 4 1 10h-3z" fill="#B72B38"/>
<path transform="translate(890,1683)" d="m0 0 3 1-1 6h3l-2 7-2-2zm2 9 1 2z" fill="#CF9499"/>
<path transform="translate(779,1671)" d="m0 0h1l1 5v10l-2 1z" fill="#DD5763"/>
<path transform="translate(890,1649)" d="m0 0 3 1 2 9h-3z" fill="#B21322"/>
<path transform="translate(866,1629)" d="m0 0 2 1v7l3-1v2l-3 1-1-3-3-1z" fill="#DB606B"/>
<path transform="translate(748,1555)" d="m0 0 1 2 5 1v4l-2 1-5-6z" fill="#C15862"/>
<path transform="translate(883,1535)" d="m0 0h3l1 7-2-2-2 1-2-1-1-4z" fill="#D7656F"/>
<path transform="translate(902,1303)" d="m0 0h2l1 6-1 5h-2z" fill="#B21322"/>
<path transform="translate(760,1213)" d="m0 0h2l1 2v8l-3-1z" fill="#E8283A"/>
<path transform="translate(923,1125)" d="m0 0h2l2 5-4 2-2-2 1-4z" fill="#B21322"/>
<path transform="translate(1035,1104)" d="m0 0h7l3 3v2l-7-2-3-1z" fill="#E04957"/>
<path transform="translate(802,1086)" d="m0 0h2v2l3 1-2 3-4-1v-4z" fill="#B21322"/>
<path transform="translate(922,1049)" d="m0 0h3l2 5-5 1-1-5z" fill="#B21322"/>
<path transform="translate(429,1042)" d="m0 0 9 2 4 1v2l-8-1z" fill="#B93542"/>
<path transform="translate(906,983)" d="m0 0h3l2 5-5 1-1-5z" fill="#B21322"/>
<path transform="translate(1077,915)" d="m0 0h5l1 4h-7z" fill="#EDD9DB"/>
<path transform="translate(283,904)" d="m0 0h10l-3 3-5 1z" fill="#E53646"/>
<path transform="translate(455,872)" d="m0 0h7l1 2-1 2-10-1z" fill="#DD5763"/>
<path transform="translate(660,866)" d="m0 0h4l-1 3-8 2-1-4z" fill="#E14453"/>
<path transform="translate(712,852)" d="m0 0h6v3l-7 1-2-1v-2z" fill="#E3404E"/>
<path transform="translate(723,618)" d="m0 0 2 2v5l-3 3-1-1 1-8z" fill="#DA656F"/>
<path transform="translate(918,468)" d="m0 0 2 1 1 3v7h-2l-1-2z" fill="#B21322"/>
<path transform="translate(692,452)" d="m0 0h3l1 7 2 1-5-1z" fill="#BD444F"/>
<path transform="translate(752,384)" d="m0 0v3zm-2 3 3 1-1 3h-3l-1 2h-2l1-5z" fill="#DC5C67"/>
<path transform="translate(774,310)" d="m0 0 2 1 2 8h-5l-1-3 1-2h2z" fill="#E43B4A"/>
<path transform="translate(809,308)" d="m0 0h2l2 9-2 1-2-5-2-2z" fill="#B21322"/>
<path transform="translate(1417,908)" d="m0 0h14l-1 2h-11z" fill="#E53847"/>
<path transform="translate(721,522)" d="m0 0h2l-1 9-3 1v-6z" fill="#DD5763"/>
<path transform="translate(757,1597)" d="m0 0 2 2-2 12h-1v-10z" fill="#E14553"/>
<path transform="translate(403,1143)" d="m0 0 3 1-1 5-4-1z" fill="#F7F0F0"/>
<path transform="translate(414,1089)" d="m0 0h3v7l-4-1z" fill="#F9F4F5"/>
<path transform="translate(341,1050)" d="m0 0h2l-1 3-8 3v-3z" fill="#E04A57"/>
<path transform="translate(321,1050)" d="m0 0h7l-3 3-6 1v-3z" fill="#E33F4E"/>
<path transform="translate(1398,919)" d="m0 0h5l1 2-4 1h-8l2-2z" fill="#E14553"/>
<path transform="translate(1408,907)" d="m0 0 4 2-3 3h-6v-2h4z" fill="#E04A57"/>
<path transform="translate(655,648)" d="m0 0 4 1v4l-3 1v-3h-2z" fill="#E33F4E"/>
<path transform="translate(697,299)" d="m0 0h3l-1 6-3 1-1-3z" fill="#E53545"/>
<path transform="translate(794,40)" d="m0 0h4v5l-3 2z" fill="#E14553"/>
<path transform="translate(825,1875)" d="m0 0 2 1v11l-2-1z" fill="#EA2032"/>
<path transform="translate(775,1688)" d="m0 0 1 3-2 7h-2v-7z" fill="#DD5763"/>
<path transform="translate(749,1344)" d="m0 0h2l1 7-5-1z" fill="#E53646"/>
<path transform="translate(296,1054)" d="m0 0h10l-3 3-6-1z" fill="#E04C59"/>
<path transform="translate(346,1038)" d="m0 0 7 1-2 4-5-1z" fill="#E24150"/>
<path transform="translate(150,949)" d="m0 0h10v2l-11 1z" fill="#E82B3C"/>
<path transform="translate(215,861)" d="m0 0 4 1v3l-6 1z" fill="#E14754"/>
<path transform="translate(415,810)" d="m0 0 2 2v5h-4z" fill="#F9F4F4"/>
<path transform="translate(700,585)" d="m0 0h4l-2 6h-3z" fill="#E24150"/>
<path transform="translate(932,404)" d="m0 0h2v12l-2-2z" fill="#DC5D68"/>
<path transform="translate(769,313)" d="m0 0 2 1-1 11-2-1z" fill="#D86D76"/>
<path transform="translate(816,269)" d="m0 0h1l-1 13h-2l1-10z" fill="#E04C59"/>
<path transform="translate(953,1125)" d="m0 0 2 2v10l-2-1z" fill="#DC5A66"/>
<path transform="translate(244,932)" d="m0 0h8v2l-6 1-3-2z" fill="#DE5460"/>
<path transform="translate(1387,901)" d="m0 0 11 1v2l-12-1z" fill="#E33D4C"/>
<path transform="translate(406,817)" d="m0 0 3 2-2 4-3-1v-4z" fill="#FBF8F9"/>
<path transform="translate(756,1662)" d="m0 0 2 1v9h-2l-1-5z" fill="#E72D3E"/>
<path transform="translate(895,1582)" d="m0 0 2 4-1 6h-2v-8z" fill="#DA636E"/>
<path transform="translate(759,1579)" d="m0 0 2 1v6h-3v-6z" fill="#E04B58"/>
<path transform="translate(752,1191)" d="m0 0h2l1 9-3-2z" fill="#E72D3E"/>
<path transform="translate(1295,1039)" d="m0 0h10v2h-10z" fill="#E43948"/>
<path transform="translate(1541,1007)" d="m0 0h2l1 5h-5l1-4z" fill="#E14553"/>
<path transform="translate(1439,936)" d="m0 0 10 2v2l-11-2z" fill="#DC5D68"/>
<path transform="translate(1638,921)" d="m0 0h5l-1 4-5-1z" fill="#E14553"/>
<path transform="translate(1372,900)" d="m0 0 9 1-1 2h-6l-2-1z" fill="#DA636E"/>
<path transform="translate(1114,873)" d="m0 0h2l-1 3-2 1h-6l1-2z" fill="#E33F4E"/>
<path transform="translate(646,865)" d="m0 0h7l-1 3h-7z" fill="#E43948"/>
<path transform="translate(1e3 722)" d="m0 0 4 1-1 6h-2z" fill="#E14553"/>
<path transform="translate(1183,1129)" d="m0 0h4v4h-5z" fill="#FBF8F8"/>
<path transform="translate(717,1129)" d="m0 0h4v4h-5z" fill="#FBF8F8"/>
<path transform="translate(193,1054)" d="m0 0 2 1-1 5-2 3h-2z" fill="#E43A4A"/>
<path transform="translate(102,958)" d="m0 0h8v3l-8-1z" fill="#DF4D5B"/>
<path transform="translate(156,928)" d="m0 0h7v2l-7 1z" fill="#E14755"/>
<path transform="translate(1332,898)" d="m0 0h6l1 3h-6z" fill="#E14755"/>
<path transform="translate(718,666)" d="m0 0 2 3v6l-3-3-1-3z" fill="#DB616B"/>
<path transform="translate(720,585)" d="m0 0h2l-1 9h-2z" fill="#DC5A66"/>
<path transform="translate(723,476)" d="m0 0 2 3-2 7h-1v-8z" fill="#E2414F"/>
<path transform="translate(915,382)" d="m0 0h2l1 2v7l-2 2z" fill="#DE5460"/>
<path transform="translate(624,1118)" d="m0 0h3v5l-4-1z" fill="#E24351"/>
<path transform="translate(570,1072)" d="m0 0h6l-3 3-4 1z" fill="#E33C4B"/>
<path transform="translate(142,1034)" d="m0 0 4 1-1 3-4 1z" fill="#E24351"/>
<path transform="translate(986,730)" d="m0 0h2l-2 9-2-4z" fill="#E33C4B"/>
<path transform="translate(885,155)" d="m0 0h2v5l-3 1-1-4z" fill="#E33C4B"/>
<path transform="translate(755,1282)" d="m0 0 2 2-1 6-2 1z" fill="#DE5360"/>
<path transform="translate(414,1140)" d="m0 0h3l-1 5-3-1z" fill="#FBF7F8"/>
<path transform="translate(330,1036)" d="m0 0 4 1-3 5h-2z" fill="#E14553"/>
<path transform="translate(135,954)" d="m0 0h7v3h-6z" fill="#E33E4D"/>
<path transform="translate(1431,952)" d="m0 0 9 2v1l-10-1z" fill="#D77079"/>
<path transform="translate(1429,934)" d="m0 0 5 1v2l-9 1v-2z" fill="#DE5360"/>
<path transform="translate(202,927)" d="m0 0 5 1-1 2-5 1z" fill="#E14553"/>
<path transform="translate(203,912)" d="m0 0h7l1 2h-10z" fill="#E33E4D"/>
<path transform="translate(438,883)" d="m0 0h7l1 2-9 1z" fill="#DC5B66"/>
<path transform="translate(635,865)" d="m0 0h9v2h-8z" fill="#EA2234"/>
<path transform="translate(414,851)" d="m0 0 3 1v5h-3z" fill="#FEFEFE"/>
<path transform="translate(980,624)" d="m0 0h3l-1 5h-3z" fill="#E63040"/>
<path transform="translate(693,307)" d="m0 0 3 1-1 5-2 1z" fill="#E53747"/>
<path transform="translate(821,218)" d="m0 0h1l1 5v7l-2-2z" fill="#D5777F"/>
<path transform="translate(761,1619)" d="m0 0 2 2v6l-2 2z" fill="#E43948"/>
<path transform="translate(469,1141)" d="m0 0 3 3-2 2h-3l1-4z" fill="#FBF7F7"/>
<path transform="translate(1050,1099)" d="m0 0 6 1v3l-7-2z" fill="#E14856"/>
<path transform="translate(358,1038)" d="m0 0 3 1v3h-6l1-3z" fill="#DF4F5C"/>
<path transform="translate(132,1035)" d="m0 0h7v3l-7-1z" fill="#DF4F5C"/>
<path transform="translate(1596,993)" d="m0 0h12l-4 2-8-1z" fill="#D96670"/>
<path transform="translate(59,938)" d="m0 0h5v3h-5z" fill="#E63142"/>
<path transform="translate(578,857)" d="m0 0h8v2h-8z" fill="#DF4F5C"/>
<path transform="translate(802,1735)" d="m0 0h2l-1 10h-1z" fill="#DA636E"/>
<path transform="translate(946,1137)" d="m0 0 2 1 1 7-3-3z" fill="#E24351"/>
<path transform="translate(978,1109)" d="m0 0 3 1v6l-2 1z" fill="#DE4250"/>
<path transform="translate(1323,1053)" d="m0 0h11l-4 2-7-1z" fill="#E04B58"/>
<path transform="translate(1598,978)" d="m0 0 9 1v2l-9-2z" fill="#DA636E"/>
<path transform="translate(1486,944)" d="m0 0h5v2h-10v-1z" fill="#D86B75"/>
<path transform="translate(187,928)" d="m0 0 5 1 1 2h-6z" fill="#E63343"/>
<path transform="translate(588,857)" d="m0 0 7 1v2h-5z" fill="#E24351"/>
<path transform="translate(875,130)" d="m0 0 2 1-1 4h-3z" fill="#E43B4A"/>
<path transform="translate(818,1841)" d="m0 0h1l1 10-2-1z" fill="#DD5763"/>
<path transform="translate(797,1804)" d="m0 0h1v10l-2-2z" fill="#E14654"/>
<path transform="translate(1019,1124)" d="m0 0 2 1v3l-5-1z" fill="#FEFEFE"/>
<path transform="translate(1144,1095)" d="m0 0 3 2-1 3-3-1z" fill="#E33D4C"/>
<path transform="translate(1006,1095)" d="m0 0v3l-6 1 2-3z" fill="#E14654"/>
<path transform="translate(662,1073)" d="m0 0h3v4l-4-1z" fill="#FEFEFE"/>
<path transform="translate(560,1071)" d="m0 0 1 4-4 2 1-4z" fill="#E72C3D"/>
<path transform="translate(150,918)" d="m0 0h4v2l-6 1-1-2z" fill="#DD5763"/>
<path transform="translate(688,858)" d="m0 0h7l2 2h-7z" fill="#E33D4C"/>
<path transform="translate(982,790)" d="m0 0h2l1 7-3-3z" fill="#E33D4C"/>
<path transform="translate(720,571)" d="m0 0 3 1-2 1-1 7h-1v-7z" fill="#DD5763"/>
<path transform="translate(889,272)" d="m0 0h2v7h-2z" fill="#E53444"/>
<path transform="translate(804,152)" d="m0 0h2v5h-3z" fill="#E33D4C"/>
<path transform="translate(852,1768)" d="m0 0h2v2h2v2l-3 1z" fill="#E53646"/>
<path transform="translate(802,1749)" d="m0 0h1v8h-2z" fill="#DE525F"/>
<path transform="translate(855,1723)" d="m0 0h2v7l-2-1z" fill="#E53646"/>
<path transform="translate(752,1368)" d="m0 0h2l1 4-1 2h-2z" fill="#E53646"/>
<path transform="translate(543,1150)" d="m0 0h3v4h-3l-1-3z" fill="#FEFEFE"/>
<path transform="translate(526,1092)" d="m0 0h4v3l-5-1z" fill="#FEFEFE"/>
<path transform="translate(1128,1073)" d="m0 0h3v4h-3l-1-3z" fill="#FEFEFE"/>
<path transform="translate(90,957)" d="m0 0h5v2l-4 1-2-2z" fill="#E3404E"/>
<path transform="translate(1380,919)" d="m0 0 7 1v1l-6 1z" fill="#DC5C67"/>
<path transform="translate(982,567)" d="m0 0 2 1v4h-3z" fill="#DE525F"/>
<path transform="translate(766,328)" d="m0 0 2 1-1 7h-1z" fill="#D57880"/>
<path transform="translate(891,252)" d="m0 0h1v7l-2 1v-6z" fill="#E04957"/>
<path transform="translate(769,130)" d="m0 0h2v5l-3-1z" fill="#E72D3E"/>
<path transform="translate(880,1847)" d="m0 0h2v6h-2z" fill="#E24351"/>
<path transform="translate(748,1656)" d="m0 0 2 3-1 3h-2z" fill="#DB616C"/>
<path transform="translate(888,1577)" d="m0 0h2l1 6h-2z" fill="#DB616C"/>
<path transform="translate(284,1058)" d="m0 0h2l-2 5h-2l1-4z" fill="#E72F3F"/>
<path transform="translate(1277,1039)" d="m0 0 7 1v1h-7z" fill="#E43948"/>
<path transform="translate(1511,1007)" d="m0 0h8l-2 2-6-1z" fill="#CF9499"/>
<path transform="translate(1586,996)" d="m0 0h7l-2 2h-5z" fill="#DB616C"/>
<path transform="translate(134,950)" d="m0 0h6v2h-6z" fill="#DD5763"/>
<path transform="translate(557,901)" d="m0 0h6v2h-6z" fill="#E72F3F"/>
<path transform="translate(1563,893)" d="m0 0h4v3h-4z" fill="#E24351"/>
<path transform="translate(596,862)" d="m0 0h6l-3 3-3-1z" fill="#DF4D5A"/>
<path transform="translate(721,841)" d="m0 0h2l-1 7-2-1z" fill="#DD5763"/>
<path transform="translate(945,669)" d="m0 0 2 2v6l-2-2z" fill="#E24351"/>
<path transform="translate(956,543)" d="m0 0 3 3v2l-4-1z" fill="#E24351"/>
<path transform="translate(770,331)" d="m0 0h2v6h-2z" fill="#E43948"/>
<path transform="translate(794,271)" d="m0 0 3 3-1 4-2-4z" fill="#E43948"/>
<path transform="translate(797,232)" d="m0 0 2 1v5l-2 1z" fill="#DD5763"/>
<path transform="translate(797,1795)" d="m0 0 2 1-1 6h-1z" fill="#DC5D68"/>
<path transform="translate(748,1671)" d="m0 0h3l-2 4-2-1z" fill="#DE525E"/>
<path transform="translate(867,1657)" d="m0 0 4 4-3 1z" fill="#DE525E"/>
<path transform="translate(949,1290)" d="m0 0h1v6h-2v-5z" fill="#D96872"/>
<path transform="translate(535,1090)" d="m0 0 4 1v2h-4z" fill="#FEFEFE"/>
<path transform="translate(1558 1e3)" d="m0 0h2v2h-9v-1z" fill="#CF9499"/>
<path transform="translate(1493,953)" d="m0 0h4v3l-4-1z" fill="#E43C4B"/>
<path transform="translate(1544,928)" d="m0 0h4l-1 3-4-2z" fill="#E14754"/>
<path transform="translate(324,902)" d="m0 0h5v2h-6z" fill="#DE525E"/>
<path transform="translate(688,864)" d="m0 0h2l-1 4-3-1z" fill="#E14754"/>
<path transform="translate(720,630)" d="m0 0h2l-1 7h-1z" fill="#DE525E"/>
<path transform="translate(831,224)" d="m0 0h1v6h-2v-5z" fill="#E14754"/>
<path transform="translate(886,1747)" d="m0 0h2l-1 5h-2z" fill="#E04B58"/>
<path transform="translate(858,1731)" d="m0 0h1v6l-2-1z" fill="#E33F4E"/>
<path transform="translate(800,1727)" d="m0 0 2 1-1 7h-1z" fill="#E33F4E"/>
<path transform="translate(859,1687)" d="m0 0 2 1-1 6h-1z" fill="#E33F4E"/>
<path transform="translate(1191,1099)" d="m0 0 4 1-1 2h-3z" fill="#E04B58"/>
<path transform="translate(1589,993)" d="m0 0h6l-1 2-5-1z" fill="#DA636E"/>
<path transform="translate(1406,919)" d="m0 0h5l1 2h-5z" fill="#DA636E"/>
<path transform="translate(313,910)" d="m0 0h2v2l-6 1 1-2z" fill="#E33F4E"/>
<path transform="translate(139,909)" d="m0 0 5 1v1h-6z" fill="#E04B58"/>
<path transform="translate(1050,871)" d="m0 0 5 1v2l-4-1z" fill="#E33F4E"/>
<path transform="translate(602,859)" d="m0 0h5v2h-5z" fill="#E04B58"/>
<path transform="translate(558,855)" d="m0 0 3 1-1 2-4-1z" fill="#D76F78"/>
<path transform="translate(1049,841)" d="m0 0 3 3-2 2-2-4z" fill="#DD5763"/>
<path transform="translate(730,531)" d="m0 0h2v5h-2z" fill="#E63343"/>
<path transform="translate(787,224)" d="m0 0h1v6h-2z" fill="#DA636E"/>
<path transform="translate(859,1857)" d="m0 0h2v5l-2-1z" fill="#E24351"/>
<path transform="translate(855,1763)" d="m0 0 2 1v4h-2z" fill="#DF505D"/>
<path transform="translate(875,1738)" d="m0 0h1l1 7h-2z" fill="#DF505D"/>
<path transform="translate(889,1584)" d="m0 0 2 1v4h-2z" fill="#E82839"/>
<path transform="translate(1482,953)" d="m0 0 5 1v1h-6z" fill="#E53545"/>
<path transform="translate(319,910)" d="m0 0h4l-1 3-3-1z" fill="#E24351"/>
<path transform="translate(307,905)" d="m0 0 4 1v2l-4-1z" fill="#DF505D"/>
<path transform="translate(561,861)" d="m0 0h2l-1 4h-2z" fill="#E24351"/>
<path transform="translate(518,854)" d="m0 0h5l-1 2h-4z" fill="#E82839"/>
<path transform="translate(1053,843)" d="m0 0 4 1v2l-4-1z" fill="#D57981"/>
<path transform="translate(738,775)" d="m0 0h1v6l-2 1z" fill="#D86B75"/>
<path transform="translate(939,621)" d="m0 0 2 1 1 5h-2z" fill="#D86B75"/>
<path transform="translate(720,562)" d="m0 0h2l-1 5h-1z" fill="#E24351"/>
<path transform="translate(732,483)" d="m0 0h1v5h-2z" fill="#DF505D"/>
<path transform="translate(751,376)" d="m0 0 2 1-1 5-2-2z" fill="#DB5E69"/>
<path transform="translate(927,344)" d="m0 0h2v4l-3-1z" fill="#D86B75"/>
<path transform="translate(786,217)" d="m0 0h2v5l-2-1z" fill="#DB5E69"/>
<path transform="translate(799,79)" d="m0 0h2l-1 5h-1z" fill="#E24351"/>
<path transform="translate(943,1214)" d="m0 0 2 1-1 3-2-1z" fill="#DD5763"/>
<path transform="translate(1111,1091)" d="m0 0 3 1v2h-3z" fill="#FEFEFE"/>
<path transform="translate(1383,1065)" d="m0 0h3l-1 3h-2z" fill="#D96670"/>
<path transform="translate(1640,1007)" d="m0 0h3l-1 3h-2z" fill="#E43948"/>
<path transform="translate(1481,1006)" d="m0 0 5 1-4 1z" fill="#D2848B"/>
<path transform="translate(1436,911)" d="m0 0h5l-1 2-4-1z" fill="#D96670"/>
<path transform="translate(1491,909)" d="m0 0 3 1-4 2-1-2z" fill="#D96670"/>
<path transform="translate(146,909)" d="m0 0h5l-1 2-4-1z" fill="#D96670"/>
<path transform="translate(1432,907)" d="m0 0h4v2h-4z" fill="#E14856"/>
<path transform="translate(1366,900)" d="m0 0h4v2h-4z" fill="#E43948"/>
<path transform="translate(949,725)" d="m0 0 3 3-1 2-2-2z" fill="#E82A3B"/>
<path transform="translate(720,640)" d="m0 0 2 2-4 2z" fill="#DD5763"/>
<path transform="translate(715,488)" d="m0 0h1v5h-2z" fill="#DD5763"/>
<path transform="translate(814,1743)" d="m0 0 2 1v3h-2z" fill="#D7717A"/>
<path transform="translate(772,1728)" d="m0 0h2l-1 4z" fill="#D7717A"/>
<path transform="translate(749,1539)" d="m0 0h1v7h-1z" fill="#CF9499"/>
<path transform="translate(105,952)" d="m0 0 4 1-4 1z" fill="#DF4E5B"/>
<path transform="translate(1483,909)" d="m0 0 4 2h-5z" fill="#DF4E5B"/>
<path transform="translate(315,902)" d="m0 0h4v2l-4-1z" fill="#DB606B"/>
<path transform="translate(1140,875)" d="m0 0 3 1-1 2h-2z" fill="#DF4E5B"/>
<path transform="translate(597,858)" d="m0 0 3 1v2l-3-1z" fill="#DF4E5B"/>
<path transform="translate(721,851)" d="m0 0 2 2-1 3-2-1z" fill="#DF4E5B"/>
<path transform="translate(720,605)" d="m0 0h1v5l-2-1z" fill="#E33D4C"/>
<path transform="translate(720,536)" d="m0 0 1 4-2 2z" fill="#E72C3D"/>
<path transform="translate(944,341)" d="m0 0 2 1v3h-2z" fill="#E72C3D"/>
<path transform="translate(766,296)" d="m0 0h2l1 4h-2z" fill="#DF4E5B"/>
<path transform="translate(742,1271)" d="m0 0h1v5l-2-2z" fill="#E24351"/>
<path transform="translate(414,1159)" d="m0 0h2v3h-2z" fill="#FEFEFE"/>
<path transform="translate(468,1097)" d="m0 0 3 1-2 2z" fill="#FEFEFE"/>
<path transform="translate(1249,1072)" d="m0 0 3 1-2 2z" fill="#D86B75"/>
<path transform="translate(1441,962)" d="m0 0 3 2-3 1z" fill="#DD5763"/>
<path transform="translate(184,950)" d="m0 0h3v2h-3z" fill="#E24351"/>
<path transform="translate(1606,925)" d="m0 0h3v2h-3z" fill="#E72F3F"/>
<path transform="translate(744,1401)" d="m0 0h1v5h-1z" fill="#E63343"/>
<path transform="translate(1544,1037)" d="m0 0 3 1-3 1z" fill="#E63343"/>
<path transform="translate(1560,1007)" d="m0 0h5v1h-5z" fill="#CF9499"/>
<path transform="translate(1494,1007)" d="m0 0h5v1h-5z" fill="#CF9499"/>
<path transform="translate(1475,920)" d="m0 0h5v1h-5z" fill="#EC1B2E"/>
<path transform="translate(745,1266)" d="m0 0 2 1-2 2z" fill="#D6757E"/>
<path transform="translate(415,1125)" d="m0 0 2 2-3-1z" fill="#FEFEFE"/>
<path transform="translate(1263,1044)" d="m0 0 4 1z" fill="#DD5763"/>
<path transform="translate(1502,1007)" d="m0 0 4 1z" fill="#CF9499"/>
<path transform="translate(1613,993)" d="m0 0 4 1z" fill="#DD5763"/>
<path transform="translate(764,1569)" d="m0 0" fill="#E24351"/>
<path transform="translate(468,1073)" d="m0 0h2l-1 2z" fill="#FEFEFE"/>
<path transform="translate(1272,1048)" d="m0 0 3 1z" fill="#E24351"/>
<path transform="translate(1342,1011)" d="m0 0 3 1z" fill="#CF9499"/>
<path transform="translate(148,1055)" d="m0 0 2 1z" fill="#CF9499"/>
<path transform="translate(1281,1049)" d="m0 0 2 1z" fill="#DD5763"/>
<path transform="translate(1411,1030)" d="m0 0 2 1z" fill="#EC1B2E"/>
<path transform="translate(745,1118)" d="m0 0" fill="#CF9499"/>
<path transform="translate(403,822)" d="m0 0" fill="#CF9499"/>
</svg>
